<svg width="202" height="161" viewBox="0 0 202 161" fill="none" xmlns="http://www.w3.org/2000/svg">
<circle cx="75" cy="86" r="75" fill="white"/>
<path d="M24.016 73.304C25.024 73.304 25.528 73.696 25.528 74.48C25.528 74.704 25.472 74.928 25.36 75.152C22 79.8187 19.984 83.3467 19.312 85.736C28.0107 77.0373 33.2933 72.688 35.16 72.688C35.3467 72.6507 35.5147 72.632 35.664 72.632C36.7093 72.632 37.232 73.0987 37.232 74.032C37.232 74.2187 37.1947 74.4053 37.12 74.592C37.0453 74.7787 36.2987 75.7867 34.88 77.616C33.2373 79.5573 31.8373 81.424 30.68 83.216C29.56 85.008 29 86.5013 29 87.696C29 88.8907 29.2613 89.488 29.784 89.488C31.4267 89.488 34.2827 87.2293 38.352 82.712C38.4267 82.6373 38.5573 82.4693 38.744 82.208C39.304 81.536 39.64 81.2 39.752 81.2C39.864 81.2 39.92 81.3867 39.92 81.76C39.92 82.1333 39.6587 82.6187 39.136 83.216C34.5067 88.48 31.2213 91.112 29.28 91.112C27.4507 91.112 26.536 90.104 26.536 88.088C26.536 86.072 27.2827 83.7573 28.776 81.144L32.36 75.32C29.8213 77.1867 27.5627 79.24 25.584 81.48C23.6053 83.6827 21.7947 85.8293 20.152 87.92C18.5467 90.0107 17.6133 91.056 17.352 91.056C16.792 91.056 16.344 90.832 16.008 90.384C15.7093 89.8987 15.56 89.32 15.56 88.648C15.56 87.9387 15.8027 87.0053 16.288 85.848C16.7733 84.6907 17.3893 83.2907 18.136 81.648L14.776 85.176C13.9547 85.9973 13.4507 86.408 13.264 86.408C13.04 86.408 12.928 86.296 12.928 86.072C12.928 85.8107 13.0773 85.5307 13.376 85.232C14.7573 83.8507 15.952 82.5253 16.96 81.256C17.9307 79.9867 19.928 77.56 22.952 73.976C23.288 73.528 23.6427 73.304 24.016 73.304ZM51.5435 91.728C51.1328 91.728 50.7595 91.672 50.4235 91.56C48.0342 90.888 46.8395 89.544 46.8395 87.528C46.8395 84.9147 48.4822 81.8907 51.7675 78.456C55.0528 75.0213 58.0022 73.304 60.6155 73.304C61.4742 73.304 62.1648 73.5467 62.6875 74.032C63.2475 74.48 63.5275 75.04 63.5275 75.712C63.5275 77.8027 61.9408 79.8 58.7675 81.704C55.6315 83.608 53.0742 84.56 51.0955 84.56C50.7968 84.56 50.5355 84.5227 50.3115 84.448C49.7515 85.456 49.4715 86.52 49.4715 87.64C49.4715 89.5813 50.3862 90.552 52.2155 90.552C54.0822 90.552 56.4902 89.3013 59.4395 86.8C61.7168 84.9707 63.6582 83.0293 65.2635 80.976C65.5995 80.528 65.8795 80.304 66.1035 80.304C66.3648 80.304 66.4955 80.416 66.4955 80.64C66.4955 80.864 66.3462 81.1813 66.0475 81.592C64.0315 84.2427 61.6048 86.5947 58.7675 88.648C55.9302 90.7013 53.5222 91.728 51.5435 91.728ZM62.1275 75.6C62.1275 75.152 61.6422 74.928 60.6715 74.928C59.7382 74.928 58.3942 75.656 56.6395 77.112C54.2875 79.0533 52.4582 81.088 51.1515 83.216C51.3755 83.2907 51.6182 83.328 51.8795 83.328C53.2982 83.328 55.1835 82.5813 57.5355 81.088C59.9248 79.5573 61.4182 77.896 62.0155 76.104C62.0902 75.9173 62.1275 75.7493 62.1275 75.6ZM97.0199 63.616C97.0199 64.7733 96.6839 65.352 96.0119 65.352C95.8252 65.352 95.6385 65.2027 95.4519 64.904C95.1159 64.3067 94.5559 64.008 93.7719 64.008C92.0545 64.008 90.4492 65.24 88.9559 67.704C88.6572 68.1893 87.7239 69.944 86.1559 72.968H86.8279C90.8972 72.968 93.6039 72.912 94.9479 72.8C95.0972 72.8373 95.1719 72.912 95.1719 73.024C95.1719 73.3227 93.8465 73.7333 91.1959 74.256C88.6945 74.6667 86.6412 75.0213 85.0359 75.32C83.8785 77.7093 82.4785 80.5467 80.8359 83.832C77.4759 90.104 75.2545 94.0053 74.1719 95.536C70.9239 100.165 67.7505 102.48 64.6519 102.48C63.5692 102.48 62.6359 102.013 61.8519 101.08C61.0305 100.184 60.6012 99.176 60.5639 98.056C60.6759 97.608 60.8439 97.384 61.0679 97.384C61.1799 97.384 61.2545 97.5147 61.2919 97.776C61.5159 98.7467 61.8892 99.4933 62.4119 100.016C62.9345 100.539 63.4759 100.8 64.0359 100.8C67.2092 100.8 70.1025 98.84 72.7159 94.92C74.2092 92.68 76.2439 88.648 78.8199 82.824L81.8439 75.544C78.1105 75.5067 76.2439 75.0587 76.2439 74.2C76.2439 73.8267 76.4119 73.5093 76.7479 73.248C77.1212 72.9867 77.4385 72.856 77.6999 72.856L82.9639 72.968C86.6225 64.8293 89.9825 60.76 93.0439 60.76C94.2012 60.76 95.3772 61.32 96.5719 62.44C96.8705 62.7387 97.0199 63.1307 97.0199 63.616ZM117.484 74.256L118.268 74.088C118.679 74.088 119.071 74.256 119.444 74.592C119.817 74.928 120.004 75.1893 120.004 75.376C120.004 75.5627 118.847 77.3733 116.532 80.808C114.217 84.2053 113.06 86.576 113.06 87.92C113.06 88.032 113.079 88.144 113.116 88.256C113.303 89.1147 113.713 89.544 114.348 89.544C116.289 89.544 119.836 86.3333 124.988 79.912C125.1 79.7627 125.231 79.688 125.38 79.688C125.529 79.688 125.604 79.8373 125.604 80.136C125.604 80.3973 125.436 80.752 125.1 81.2C120.321 87.584 116.681 90.776 114.18 90.776C113.844 90.776 113.527 90.72 113.228 90.608C111.585 89.9733 110.764 88.7413 110.764 86.912C110.764 86.2773 110.839 85.6427 110.988 85.008L107.516 88.368C105.313 90.3093 103.708 91.28 102.7 91.28C101.729 91.28 100.796 90.9627 99.8999 90.328C98.8919 89.5813 98.3879 88.592 98.3879 87.36C98.3879 84.6347 100.292 81.3867 104.1 77.616C107.908 73.808 111.399 71.904 114.572 71.904C115.804 71.904 116.625 72.3333 117.036 73.192C117.148 73.4907 117.241 73.752 117.316 73.976C117.391 74.1627 117.447 74.256 117.484 74.256ZM100.74 88.032C100.74 89.376 101.207 90.048 102.14 90.048C104.305 90.048 107.255 87.6773 110.988 82.936L116.924 74.76C116.625 74.2373 116.14 73.976 115.468 73.976C113.191 73.976 110.167 75.7493 106.396 79.296C102.625 82.8053 100.74 85.7173 100.74 88.032Z" fill="black" fill-opacity="0.85"/>
<path d="M91.0019 119.902C81.6582 121.442 76.227 120.047 71.4352 118.816C70.1087 118.476 69.7151 117.558 70.5561 116.767C71.3969 115.977 73.154 115.612 74.4805 115.953C79.0121 117.117 82.9256 118.122 90.186 116.925C97.4466 115.729 100.495 113.576 104.024 111.083C107.756 108.447 111.987 105.459 121.33 103.919C130.674 102.379 136.105 103.774 140.898 105.005C142.224 105.346 142.618 106.263 141.777 107.054C140.936 107.845 139.179 108.21 137.853 107.869C133.321 106.705 129.407 105.699 122.146 106.896C114.886 108.093 111.838 110.246 108.308 112.738C104.576 115.374 100.346 118.362 91.0019 119.902Z" fill="url(#paint0_linear)"/>
<path d="M189.175 32.7876L152.505 39.4166L143.819 47.5834L138.909 20.4242C137.925 14.9828 142.184 9.61992 148.477 8.4823L183.68 2.11843C189.925 0.989361 195.84 4.51326 196.823 9.95457L198.791 20.8372C199.774 26.2785 195.515 31.6414 189.223 32.7791L189.175 32.7876Z" fill="#D1EBE1"/>
<path d="M184.653 13.1462L150.538 19.3134C150.018 19.4074 149.515 19.0586 149.421 18.5381L149.155 17.0713C149.061 16.5508 149.41 16.048 149.931 15.9539L184.045 9.7868C184.566 9.69271 185.069 10.0416 185.163 10.562L185.428 12.0288C185.522 12.5493 185.173 13.0521 184.653 13.1462Z" fill="#308E7C"/>
<path d="M185.754 19.2439L151.64 25.411C151.119 25.5051 150.616 25.1562 150.522 24.6358L150.257 23.169C150.163 22.6485 150.512 22.1457 151.032 22.0516L185.147 15.8845C185.667 15.7904 186.17 16.1392 186.264 16.6597L186.529 18.1265C186.624 18.647 186.275 19.1498 185.754 19.2439Z" fill="#308E7C"/>
<path d="M172.519 27.9333L152.741 31.5087C152.221 31.6027 151.718 31.2539 151.624 30.7334L151.359 29.2666C151.264 28.7462 151.613 28.2433 152.134 28.1492L171.912 24.5739C172.432 24.4798 172.935 24.8286 173.029 25.3491L173.294 26.8159C173.388 27.3364 173.04 27.8392 172.519 27.9333Z" fill="#308E7C"/>
<defs>
<linearGradient id="paint0_linear" x1="71.5838" y1="123.103" x2="141.623" y2="103.905" gradientUnits="userSpaceOnUse">
<stop stop-color="#80D8FF"/>
<stop offset="1" stop-color="#EA80FC"/>
</linearGradient>
</defs>
</svg>
