<svg width="202" height="161" viewBox="0 0 202 161" fill="none" xmlns="http://www.w3.org/2000/svg">
<circle cx="75" cy="86" r="75" fill="white"/>
<mask id="path-2-inside-1" fill="white">
<path d="M81.7387 63.97C81.3908 63.7176 73.1369 57.8177 65.7677 60.1556C58.3985 62.4934 55.1124 72.0545 54.9762 72.4601C54.8471 72.8451 54.9832 73.2686 55.3129 73.5081C55.6606 73.7606 63.9147 79.6604 71.2839 77.3225C78.6531 74.9846 81.9389 65.4237 82.0754 65.018C82.2048 64.6329 82.0686 64.2091 81.7387 63.97ZM70.7132 75.5466C65.2851 77.2687 58.935 73.6294 57.0043 72.3936C57.8548 70.2738 60.8985 63.6572 66.3384 61.9314C71.7663 60.2094 78.1157 63.848 80.0473 65.0845C79.1968 67.2042 76.1531 73.8209 70.7132 75.5466Z"/>
<path d="M66.8139 63.4114C63.8575 64.3493 62.2201 67.5025 63.164 70.4401C64.108 73.3777 67.2813 75.0047 70.2377 74.0668C73.1942 73.1288 74.8315 69.9757 73.8876 67.038C72.9437 64.1004 69.7703 62.4734 66.8139 63.4114ZM69.6671 72.2908C67.696 72.9161 65.5806 71.8316 64.9513 69.8731C64.322 67.9146 65.4135 65.8126 67.3846 65.1873C69.3556 64.562 71.471 65.6466 72.1003 67.605C72.7296 69.5635 71.6382 71.6655 69.6671 72.2908Z"/>
<path d="M31.2417 117.432C32.3771 117.432 33.358 117.644 34.1846 118.07C35.0212 118.486 35.6586 119.084 36.0968 119.866C36.545 120.648 36.7691 121.568 36.7691 122.627C36.7691 123.686 36.545 124.606 36.0968 125.388C35.6586 126.16 35.0212 126.754 34.1846 127.169C33.358 127.575 32.3771 127.778 31.2417 127.778H28V117.432H31.2417ZM31.2417 126.664C32.5862 126.664 33.612 126.313 34.3191 125.611C35.0262 124.898 35.3798 123.904 35.3798 122.627C35.3798 121.341 35.0212 120.336 34.3042 119.614C33.5971 118.891 32.5762 118.53 31.2417 118.53H29.3594V126.664H31.2417Z"/>
<path d="M46.0316 123.399C46.0316 123.656 46.0166 123.928 45.9867 124.215H39.4436C39.4934 125.017 39.7672 125.645 40.2652 126.1C40.7731 126.546 41.3856 126.768 42.1027 126.768C42.6903 126.768 43.1783 126.635 43.5667 126.368C43.965 126.091 44.2439 125.724 44.4032 125.269H45.8672C45.6481 126.051 45.2099 126.689 44.5526 127.184C43.8953 127.669 43.0787 127.911 42.1027 127.911C41.3258 127.911 40.6287 127.738 40.0112 127.392C39.4037 127.045 38.9257 126.556 38.5771 125.922C38.2285 125.279 38.0543 124.537 38.0543 123.696C38.0543 122.855 38.2236 122.117 38.5622 121.484C38.9008 120.851 39.3738 120.366 39.9814 120.029C40.5988 119.683 41.3059 119.51 42.1027 119.51C42.8795 119.51 43.5667 119.678 44.1642 120.014C44.7618 120.351 45.2199 120.816 45.5386 121.41C45.8672 121.994 46.0316 122.657 46.0316 123.399ZM44.6273 123.117C44.6273 122.602 44.5128 122.162 44.2837 121.796C44.0547 121.42 43.7409 121.138 43.3426 120.95C42.9542 120.752 42.5209 120.653 42.0429 120.653C41.3557 120.653 40.7681 120.87 40.2801 121.306C39.8021 121.741 39.5282 122.345 39.4585 123.117H44.6273Z"/>
<path d="M55.2953 123.399C55.2953 123.656 55.2804 123.928 55.2505 124.215H48.7073C48.7571 125.017 49.031 125.645 49.529 126.1C50.0369 126.546 50.6494 126.768 51.3665 126.768C51.954 126.768 52.442 126.635 52.8304 126.368C53.2288 126.091 53.5077 125.724 53.667 125.269H55.131C54.9119 126.051 54.4737 126.689 53.8164 127.184C53.1591 127.669 52.3425 127.911 51.3665 127.911C50.5896 127.911 49.8925 127.738 49.275 127.392C48.6675 127.045 48.1895 126.556 47.8409 125.922C47.4923 125.279 47.318 124.537 47.318 123.696C47.318 122.855 47.4874 122.117 47.826 121.484C48.1646 120.851 48.6376 120.366 49.2451 120.029C49.8626 119.683 50.5697 119.51 51.3665 119.51C52.1433 119.51 52.8305 119.678 53.428 120.014C54.0256 120.351 54.4837 120.816 54.8024 121.41C55.131 121.994 55.2953 122.657 55.2953 123.399ZM53.8911 123.117C53.8911 122.602 53.7766 122.162 53.5475 121.796C53.3184 121.42 53.0047 121.138 52.6064 120.95C52.218 120.752 51.7847 120.653 51.3067 120.653C50.6195 120.653 50.0319 120.87 49.5439 121.306C49.0659 121.741 48.792 122.345 48.7223 123.117H53.8911Z"/>
<path d="M58.4492 121.143C58.7181 120.678 59.1164 120.292 59.6443 119.985C60.1821 119.668 60.8045 119.51 61.5116 119.51C62.2386 119.51 62.896 119.683 63.4835 120.029C64.0811 120.376 64.5492 120.866 64.8878 121.499C65.2264 122.122 65.3957 122.85 65.3957 123.681C65.3957 124.502 65.2264 125.235 64.8878 125.878C64.5492 126.521 64.0811 127.021 63.4835 127.377C62.896 127.733 62.2386 127.911 61.5116 127.911C60.8145 127.911 60.197 127.758 59.6592 127.451C59.1314 127.135 58.728 126.744 58.4492 126.279V131.637H57.0897V119.643H58.4492V121.143ZM64.0064 123.681C64.0064 123.067 63.8819 122.533 63.6329 122.078C63.3839 121.623 63.0453 121.276 62.6171 121.039C62.1988 120.801 61.7357 120.682 61.2278 120.682C60.7298 120.682 60.2667 120.806 59.8385 121.054C59.4202 121.291 59.0816 121.642 58.8226 122.107C58.5737 122.563 58.4492 123.092 58.4492 123.696C58.4492 124.309 58.5737 124.849 58.8226 125.314C59.0816 125.769 59.4202 126.12 59.8385 126.368C60.2667 126.605 60.7298 126.724 61.2278 126.724C61.7357 126.724 62.1988 126.605 62.6171 126.368C63.0453 126.12 63.3839 125.769 63.6329 125.314C63.8819 124.849 64.0064 124.304 64.0064 123.681Z"/>
<path d="M77.2247 118.681C76.8671 117.933 76.3492 117.357 75.671 116.953C74.9928 116.537 74.2037 116.328 73.3036 116.328C72.4035 116.328 71.5897 116.537 70.8622 116.953C70.147 117.357 69.5798 117.946 69.1606 118.717C68.7537 119.477 68.5502 120.359 68.5502 121.364C68.5502 122.369 68.7537 123.251 69.1606 124.01C69.5798 124.77 70.147 125.358 70.8622 125.775C71.5897 126.179 72.4035 126.381 73.3036 126.381C74.5613 126.381 75.597 126.007 76.4108 125.26C77.2247 124.513 77.6994 123.502 77.835 122.228H72.6932V120.868H79.6291V122.154C79.5304 123.208 79.1975 124.176 78.6303 125.058C78.0631 125.928 77.3171 126.62 76.3923 127.135C75.4676 127.637 74.438 127.888 73.3036 127.888C72.1075 127.888 71.0163 127.612 70.0299 127.061C69.0434 126.497 68.2604 125.719 67.6809 124.727C67.1137 123.735 66.8301 122.614 66.8301 121.364C66.8301 120.114 67.1137 118.993 67.6809 118.001C68.2604 116.996 69.0434 116.218 70.0299 115.667C71.0163 115.103 72.1075 114.821 73.3036 114.821C74.6723 114.821 75.8806 115.158 76.9287 115.832C77.9891 116.506 78.7598 117.455 79.2407 118.681H77.2247Z"/>
<path d="M83.5376 119.342C83.8335 118.766 84.2527 118.319 84.7953 118.001C85.3502 117.682 86.0222 117.523 86.8113 117.523V119.25H86.3674C84.4809 119.25 83.5376 120.267 83.5376 122.301V127.778H81.8545V117.707H83.5376V119.342Z"/>
<path d="M88.1254 122.705C88.1254 121.676 88.335 120.776 88.7542 120.004C89.1735 119.22 89.7468 118.613 90.4743 118.184C91.2141 117.756 92.0341 117.541 92.9342 117.541C93.822 117.541 94.5927 117.731 95.2462 118.111C95.8997 118.491 96.3867 118.969 96.7073 119.544V117.707H98.4089V127.778H96.7073V125.903C96.3744 126.491 95.875 126.981 95.2092 127.373C94.5557 127.753 93.7912 127.943 92.9157 127.943C92.0156 127.943 91.2018 127.723 90.4743 127.282C89.7468 126.841 89.1735 126.222 88.7542 125.425C88.335 124.629 88.1254 123.722 88.1254 122.705ZM96.7073 122.724C96.7073 121.964 96.5532 121.303 96.2449 120.739C95.9367 120.175 95.5174 119.747 94.9872 119.453C94.4694 119.146 93.896 118.993 93.2671 118.993C92.6383 118.993 92.0649 119.14 91.547 119.434C91.0292 119.728 90.6161 120.157 90.3078 120.721C89.9996 121.284 89.8455 121.946 89.8455 122.705C89.8455 123.477 89.9996 124.151 90.3078 124.727C90.6161 125.291 91.0292 125.726 91.547 126.032C92.0649 126.326 92.6383 126.473 93.2671 126.473C93.896 126.473 94.4694 126.326 94.9872 126.032C95.5174 125.726 95.9367 125.291 96.2449 124.727C96.5532 124.151 96.7073 123.483 96.7073 122.724Z"/>
<path d="M100.624 122.705C100.624 121.676 100.834 120.776 101.253 120.004C101.672 119.22 102.246 118.613 102.973 118.184C103.713 117.756 104.539 117.541 105.452 117.541C106.241 117.541 106.975 117.725 107.653 118.093C108.331 118.448 108.849 118.92 109.206 119.508V114.178H110.908V127.778H109.206V125.885C108.873 126.485 108.38 126.981 107.727 127.373C107.073 127.753 106.309 127.943 105.433 127.943C104.533 127.943 103.713 127.723 102.973 127.282C102.246 126.841 101.672 126.222 101.253 125.425C100.834 124.629 100.624 123.722 100.624 122.705ZM109.206 122.724C109.206 121.964 109.052 121.303 108.744 120.739C108.436 120.175 108.016 119.747 107.486 119.453C106.968 119.146 106.395 118.993 105.766 118.993C105.137 118.993 104.564 119.14 104.046 119.434C103.528 119.728 103.115 120.157 102.807 120.721C102.499 121.284 102.344 121.946 102.344 122.705C102.344 123.477 102.499 124.151 102.807 124.727C103.115 125.291 103.528 125.726 104.046 126.032C104.564 126.326 105.137 126.473 105.766 126.473C106.395 126.473 106.968 126.326 107.486 126.032C108.016 125.726 108.436 125.291 108.744 124.727C109.052 124.151 109.206 123.483 109.206 122.724Z"/>
<path d="M123 122.356C123 122.675 122.982 123.012 122.945 123.367H114.843C114.905 124.359 115.244 125.137 115.861 125.701C116.49 126.252 117.248 126.528 118.136 126.528C118.863 126.528 119.467 126.363 119.948 126.032C120.441 125.689 120.787 125.235 120.984 124.672H122.797C122.525 125.64 121.983 126.43 121.169 127.043C120.355 127.643 119.344 127.943 118.136 127.943C117.174 127.943 116.311 127.729 115.546 127.3C114.794 126.871 114.202 126.265 113.771 125.481C113.339 124.684 113.123 123.765 113.123 122.724C113.123 121.682 113.333 120.77 113.752 119.985C114.171 119.201 114.757 118.601 115.509 118.184C116.274 117.756 117.149 117.541 118.136 117.541C119.097 117.541 119.948 117.75 120.688 118.166C121.428 118.583 121.995 119.158 122.39 119.894C122.797 120.616 123 121.437 123 122.356ZM121.261 122.007C121.261 121.37 121.12 120.825 120.836 120.371C120.552 119.906 120.164 119.557 119.671 119.324C119.19 119.079 118.654 118.956 118.062 118.956C117.211 118.956 116.483 119.226 115.879 119.765C115.287 120.304 114.948 121.051 114.862 122.007H121.261Z"/>
<path d="M65.4501 83.1384C62.726 85.3654 59.3161 87.4115 55.2628 89.2556C53.893 94.0839 53.8256 98.3086 54.1192 101.374C54.5859 106.248 56.0141 109.293 56.0746 109.42L56.6057 110.535L70.4522 105.925L69.7535 104.559C66.0741 97.3644 66.1092 90.6998 66.7866 86.3755C67.057 84.6491 67.5922 83.1 68.1621 81.8274C67.7816 81.8178 67.4066 81.7888 67.0385 81.7418C66.5705 82.1858 66.0444 82.6525 65.4501 83.1384Z"/>
<path d="M76.7858 78.4985C76.5186 78.7562 76.2346 79.0036 75.9347 79.239C77.157 79.9041 78.518 80.8077 79.7746 82.0084C82.9255 85.019 86.9756 90.2603 88.3771 98.1329L88.6432 99.6281L102.507 95.0123L102.238 93.8054C102.207 93.6676 101.455 90.3808 98.8329 86.2212C97.2313 83.6806 94.695 80.4783 90.8654 77.541C86.9963 78.3371 83.2985 78.7132 79.8106 78.662C78.6793 78.6453 77.6703 78.5838 76.7858 78.4985Z"/>
<path d="M54.69 77.6495L52.0814 69.9138C51.2768 67.5279 51.4361 65.0482 52.3481 62.893C48.1638 62.2477 41.3778 62.1389 32.43 65.1181L30.8294 65.651L40.0865 93.102L41.6871 92.5691C48.8607 90.1806 54.4407 87.1156 58.272 83.459C58.4707 83.2693 58.6589 83.0829 58.8385 82.8997C56.954 81.717 55.4517 79.9082 54.69 77.6495Z"/>
<path d="M78.0394 54.8948C77.7685 55.1534 77.5159 55.4063 77.2801 55.6527C79.3241 56.826 80.9628 58.7142 81.7699 61.1077L84.3786 68.8433C85.1387 71.0975 85.0385 73.4354 84.256 75.5043C88.4608 76.1092 95.1391 76.1463 103.881 73.2356L105.482 72.7026L96.1353 44.9863L94.5347 45.5192C87.361 47.9077 81.8707 51.2383 78.0394 54.8948Z"/>
<path d="M68.8081 43.0977L69.9189 41.7177L86.7635 55.103L85.6528 56.4831L68.8081 43.0977Z"/>
<path d="M70.6686 40.5032C71.6657 41.2956 71.8276 42.7413 71.0302 43.7321C70.2327 44.723 68.7778 44.8838 67.7806 44.0914C66.7834 43.299 66.6215 41.8534 67.419 40.8626C68.2165 39.8717 69.6714 39.7108 70.6686 40.5032Z"/>
<path d="M51.9526 45.7575L53.6553 46.2676L47.4289 66.7871L45.7262 66.277L51.9526 45.7575Z"/>
<path d="M54.5538 47.8956C54.1852 49.1103 52.8954 49.7981 51.6729 49.4319C50.4504 49.0656 49.7582 47.784 50.1268 46.5693C50.4954 45.3545 51.7852 44.6667 53.0077 45.033C54.2302 45.3992 54.9224 46.6809 54.5538 47.8956Z"/>
</mask>
<path d="M81.7387 63.97C81.3908 63.7176 73.1369 57.8177 65.7677 60.1556C58.3985 62.4934 55.1124 72.0545 54.9762 72.4601C54.8471 72.8451 54.9832 73.2686 55.3129 73.5081C55.6606 73.7606 63.9147 79.6604 71.2839 77.3225C78.6531 74.9846 81.9389 65.4237 82.0754 65.018C82.2048 64.6329 82.0686 64.2091 81.7387 63.97ZM70.7132 75.5466C65.2851 77.2687 58.935 73.6294 57.0043 72.3936C57.8548 70.2738 60.8985 63.6572 66.3384 61.9314C71.7663 60.2094 78.1157 63.848 80.0473 65.0845C79.1968 67.2042 76.1531 73.8209 70.7132 75.5466Z" fill="#12151C" fill-opacity="0.84"/>
<path d="M66.8139 63.4114C63.8575 64.3493 62.2201 67.5025 63.164 70.4401C64.108 73.3777 67.2813 75.0047 70.2377 74.0668C73.1942 73.1288 74.8315 69.9757 73.8876 67.038C72.9437 64.1004 69.7703 62.4734 66.8139 63.4114ZM69.6671 72.2908C67.696 72.9161 65.5806 71.8316 64.9513 69.8731C64.322 67.9146 65.4135 65.8126 67.3846 65.1873C69.3556 64.562 71.471 65.6466 72.1003 67.605C72.7296 69.5635 71.6382 71.6655 69.6671 72.2908Z" fill="#12151C" fill-opacity="0.84"/>
<path d="M31.2417 117.432C32.3771 117.432 33.358 117.644 34.1846 118.07C35.0212 118.486 35.6586 119.084 36.0968 119.866C36.545 120.648 36.7691 121.568 36.7691 122.627C36.7691 123.686 36.545 124.606 36.0968 125.388C35.6586 126.16 35.0212 126.754 34.1846 127.169C33.358 127.575 32.3771 127.778 31.2417 127.778H28V117.432H31.2417ZM31.2417 126.664C32.5862 126.664 33.612 126.313 34.3191 125.611C35.0262 124.898 35.3798 123.904 35.3798 122.627C35.3798 121.341 35.0212 120.336 34.3042 119.614C33.5971 118.891 32.5762 118.53 31.2417 118.53H29.3594V126.664H31.2417Z" fill="#12151C" fill-opacity="0.84"/>
<path d="M46.0316 123.399C46.0316 123.656 46.0166 123.928 45.9867 124.215H39.4436C39.4934 125.017 39.7672 125.645 40.2652 126.1C40.7731 126.546 41.3856 126.768 42.1027 126.768C42.6903 126.768 43.1783 126.635 43.5667 126.368C43.965 126.091 44.2439 125.724 44.4032 125.269H45.8672C45.6481 126.051 45.2099 126.689 44.5526 127.184C43.8953 127.669 43.0787 127.911 42.1027 127.911C41.3258 127.911 40.6287 127.738 40.0112 127.392C39.4037 127.045 38.9257 126.556 38.5771 125.922C38.2285 125.279 38.0543 124.537 38.0543 123.696C38.0543 122.855 38.2236 122.117 38.5622 121.484C38.9008 120.851 39.3738 120.366 39.9814 120.029C40.5988 119.683 41.3059 119.51 42.1027 119.51C42.8795 119.51 43.5667 119.678 44.1642 120.014C44.7618 120.351 45.2199 120.816 45.5386 121.41C45.8672 121.994 46.0316 122.657 46.0316 123.399ZM44.6273 123.117C44.6273 122.602 44.5128 122.162 44.2837 121.796C44.0547 121.42 43.7409 121.138 43.3426 120.95C42.9542 120.752 42.5209 120.653 42.0429 120.653C41.3557 120.653 40.7681 120.87 40.2801 121.306C39.8021 121.741 39.5282 122.345 39.4585 123.117H44.6273Z" fill="#12151C" fill-opacity="0.84"/>
<path d="M55.2953 123.399C55.2953 123.656 55.2804 123.928 55.2505 124.215H48.7073C48.7571 125.017 49.031 125.645 49.529 126.1C50.0369 126.546 50.6494 126.768 51.3665 126.768C51.954 126.768 52.442 126.635 52.8304 126.368C53.2288 126.091 53.5077 125.724 53.667 125.269H55.131C54.9119 126.051 54.4737 126.689 53.8164 127.184C53.1591 127.669 52.3425 127.911 51.3665 127.911C50.5896 127.911 49.8925 127.738 49.275 127.392C48.6675 127.045 48.1895 126.556 47.8409 125.922C47.4923 125.279 47.318 124.537 47.318 123.696C47.318 122.855 47.4874 122.117 47.826 121.484C48.1646 120.851 48.6376 120.366 49.2451 120.029C49.8626 119.683 50.5697 119.51 51.3665 119.51C52.1433 119.51 52.8305 119.678 53.428 120.014C54.0256 120.351 54.4837 120.816 54.8024 121.41C55.131 121.994 55.2953 122.657 55.2953 123.399ZM53.8911 123.117C53.8911 122.602 53.7766 122.162 53.5475 121.796C53.3184 121.42 53.0047 121.138 52.6064 120.95C52.218 120.752 51.7847 120.653 51.3067 120.653C50.6195 120.653 50.0319 120.87 49.5439 121.306C49.0659 121.741 48.792 122.345 48.7223 123.117H53.8911Z" fill="#12151C" fill-opacity="0.84"/>
<path d="M58.4492 121.143C58.7181 120.678 59.1164 120.292 59.6443 119.985C60.1821 119.668 60.8045 119.51 61.5116 119.51C62.2386 119.51 62.896 119.683 63.4835 120.029C64.0811 120.376 64.5492 120.866 64.8878 121.499C65.2264 122.122 65.3957 122.85 65.3957 123.681C65.3957 124.502 65.2264 125.235 64.8878 125.878C64.5492 126.521 64.0811 127.021 63.4835 127.377C62.896 127.733 62.2386 127.911 61.5116 127.911C60.8145 127.911 60.197 127.758 59.6592 127.451C59.1314 127.135 58.728 126.744 58.4492 126.279V131.637H57.0897V119.643H58.4492V121.143ZM64.0064 123.681C64.0064 123.067 63.8819 122.533 63.6329 122.078C63.3839 121.623 63.0453 121.276 62.6171 121.039C62.1988 120.801 61.7357 120.682 61.2278 120.682C60.7298 120.682 60.2667 120.806 59.8385 121.054C59.4202 121.291 59.0816 121.642 58.8226 122.107C58.5737 122.563 58.4492 123.092 58.4492 123.696C58.4492 124.309 58.5737 124.849 58.8226 125.314C59.0816 125.769 59.4202 126.12 59.8385 126.368C60.2667 126.605 60.7298 126.724 61.2278 126.724C61.7357 126.724 62.1988 126.605 62.6171 126.368C63.0453 126.12 63.3839 125.769 63.6329 125.314C63.8819 124.849 64.0064 124.304 64.0064 123.681Z" fill="#12151C" fill-opacity="0.84"/>
<path d="M77.2247 118.681C76.8671 117.933 76.3492 117.357 75.671 116.953C74.9928 116.537 74.2037 116.328 73.3036 116.328C72.4035 116.328 71.5897 116.537 70.8622 116.953C70.147 117.357 69.5798 117.946 69.1606 118.717C68.7537 119.477 68.5502 120.359 68.5502 121.364C68.5502 122.369 68.7537 123.251 69.1606 124.01C69.5798 124.77 70.147 125.358 70.8622 125.775C71.5897 126.179 72.4035 126.381 73.3036 126.381C74.5613 126.381 75.597 126.007 76.4108 125.26C77.2247 124.513 77.6994 123.502 77.835 122.228H72.6932V120.868H79.6291V122.154C79.5304 123.208 79.1975 124.176 78.6303 125.058C78.0631 125.928 77.3171 126.62 76.3923 127.135C75.4676 127.637 74.438 127.888 73.3036 127.888C72.1075 127.888 71.0163 127.612 70.0299 127.061C69.0434 126.497 68.2604 125.719 67.6809 124.727C67.1137 123.735 66.8301 122.614 66.8301 121.364C66.8301 120.114 67.1137 118.993 67.6809 118.001C68.2604 116.996 69.0434 116.218 70.0299 115.667C71.0163 115.103 72.1075 114.821 73.3036 114.821C74.6723 114.821 75.8806 115.158 76.9287 115.832C77.9891 116.506 78.7598 117.455 79.2407 118.681H77.2247Z" fill="#12151C" fill-opacity="0.84"/>
<path d="M83.5376 119.342C83.8335 118.766 84.2527 118.319 84.7953 118.001C85.3502 117.682 86.0222 117.523 86.8113 117.523V119.25H86.3674C84.4809 119.25 83.5376 120.267 83.5376 122.301V127.778H81.8545V117.707H83.5376V119.342Z" fill="#12151C" fill-opacity="0.84"/>
<path d="M88.1254 122.705C88.1254 121.676 88.335 120.776 88.7542 120.004C89.1735 119.22 89.7468 118.613 90.4743 118.184C91.2141 117.756 92.0341 117.541 92.9342 117.541C93.822 117.541 94.5927 117.731 95.2462 118.111C95.8997 118.491 96.3867 118.969 96.7073 119.544V117.707H98.4089V127.778H96.7073V125.903C96.3744 126.491 95.875 126.981 95.2092 127.373C94.5557 127.753 93.7912 127.943 92.9157 127.943C92.0156 127.943 91.2018 127.723 90.4743 127.282C89.7468 126.841 89.1735 126.222 88.7542 125.425C88.335 124.629 88.1254 123.722 88.1254 122.705ZM96.7073 122.724C96.7073 121.964 96.5532 121.303 96.2449 120.739C95.9367 120.175 95.5174 119.747 94.9872 119.453C94.4694 119.146 93.896 118.993 93.2671 118.993C92.6383 118.993 92.0649 119.14 91.547 119.434C91.0292 119.728 90.6161 120.157 90.3078 120.721C89.9996 121.284 89.8455 121.946 89.8455 122.705C89.8455 123.477 89.9996 124.151 90.3078 124.727C90.6161 125.291 91.0292 125.726 91.547 126.032C92.0649 126.326 92.6383 126.473 93.2671 126.473C93.896 126.473 94.4694 126.326 94.9872 126.032C95.5174 125.726 95.9367 125.291 96.2449 124.727C96.5532 124.151 96.7073 123.483 96.7073 122.724Z" fill="#12151C" fill-opacity="0.84"/>
<path d="M100.624 122.705C100.624 121.676 100.834 120.776 101.253 120.004C101.672 119.22 102.246 118.613 102.973 118.184C103.713 117.756 104.539 117.541 105.452 117.541C106.241 117.541 106.975 117.725 107.653 118.093C108.331 118.448 108.849 118.92 109.206 119.508V114.178H110.908V127.778H109.206V125.885C108.873 126.485 108.38 126.981 107.727 127.373C107.073 127.753 106.309 127.943 105.433 127.943C104.533 127.943 103.713 127.723 102.973 127.282C102.246 126.841 101.672 126.222 101.253 125.425C100.834 124.629 100.624 123.722 100.624 122.705ZM109.206 122.724C109.206 121.964 109.052 121.303 108.744 120.739C108.436 120.175 108.016 119.747 107.486 119.453C106.968 119.146 106.395 118.993 105.766 118.993C105.137 118.993 104.564 119.14 104.046 119.434C103.528 119.728 103.115 120.157 102.807 120.721C102.499 121.284 102.344 121.946 102.344 122.705C102.344 123.477 102.499 124.151 102.807 124.727C103.115 125.291 103.528 125.726 104.046 126.032C104.564 126.326 105.137 126.473 105.766 126.473C106.395 126.473 106.968 126.326 107.486 126.032C108.016 125.726 108.436 125.291 108.744 124.727C109.052 124.151 109.206 123.483 109.206 122.724Z" fill="#12151C" fill-opacity="0.84"/>
<path d="M123 122.356C123 122.675 122.982 123.012 122.945 123.367H114.843C114.905 124.359 115.244 125.137 115.861 125.701C116.49 126.252 117.248 126.528 118.136 126.528C118.863 126.528 119.467 126.363 119.948 126.032C120.441 125.689 120.787 125.235 120.984 124.672H122.797C122.525 125.64 121.983 126.43 121.169 127.043C120.355 127.643 119.344 127.943 118.136 127.943C117.174 127.943 116.311 127.729 115.546 127.3C114.794 126.871 114.202 126.265 113.771 125.481C113.339 124.684 113.123 123.765 113.123 122.724C113.123 121.682 113.333 120.77 113.752 119.985C114.171 119.201 114.757 118.601 115.509 118.184C116.274 117.756 117.149 117.541 118.136 117.541C119.097 117.541 119.948 117.75 120.688 118.166C121.428 118.583 121.995 119.158 122.39 119.894C122.797 120.616 123 121.437 123 122.356ZM121.261 122.007C121.261 121.37 121.12 120.825 120.836 120.371C120.552 119.906 120.164 119.557 119.671 119.324C119.19 119.079 118.654 118.956 118.062 118.956C117.211 118.956 116.483 119.226 115.879 119.765C115.287 120.304 114.948 121.051 114.862 122.007H121.261Z" fill="#12151C" fill-opacity="0.84"/>
<path d="M65.4501 83.1384C62.726 85.3654 59.3161 87.4115 55.2628 89.2556C53.893 94.0839 53.8256 98.3086 54.1192 101.374C54.5859 106.248 56.0141 109.293 56.0746 109.42L56.6057 110.535L70.4522 105.925L69.7535 104.559C66.0741 97.3644 66.1092 90.6998 66.7866 86.3755C67.057 84.6491 67.5922 83.1 68.1621 81.8274C67.7816 81.8178 67.4066 81.7888 67.0385 81.7418C66.5705 82.1858 66.0444 82.6525 65.4501 83.1384Z" fill="#12151C" fill-opacity="0.84"/>
<path d="M76.7858 78.4985C76.5186 78.7562 76.2346 79.0036 75.9347 79.239C77.157 79.9041 78.518 80.8077 79.7746 82.0084C82.9255 85.019 86.9756 90.2603 88.3771 98.1329L88.6432 99.6281L102.507 95.0123L102.238 93.8054C102.207 93.6676 101.455 90.3808 98.8329 86.2212C97.2313 83.6806 94.695 80.4783 90.8654 77.541C86.9963 78.3371 83.2985 78.7132 79.8106 78.662C78.6793 78.6453 77.6703 78.5838 76.7858 78.4985Z" fill="#12151C" fill-opacity="0.84"/>
<path d="M54.69 77.6495L52.0814 69.9138C51.2768 67.5279 51.4361 65.0482 52.3481 62.893C48.1638 62.2477 41.3778 62.1389 32.43 65.1181L30.8294 65.651L40.0865 93.102L41.6871 92.5691C48.8607 90.1806 54.4407 87.1156 58.272 83.459C58.4707 83.2693 58.6589 83.0829 58.8385 82.8997C56.954 81.717 55.4517 79.9082 54.69 77.6495Z" fill="#12151C" fill-opacity="0.84"/>
<path d="M78.0394 54.8948C77.7685 55.1534 77.5159 55.4063 77.2801 55.6527C79.3241 56.826 80.9628 58.7142 81.7699 61.1077L84.3786 68.8433C85.1387 71.0975 85.0385 73.4354 84.256 75.5043C88.4608 76.1092 95.1391 76.1463 103.881 73.2356L105.482 72.7026L96.1353 44.9863L94.5347 45.5192C87.361 47.9077 81.8707 51.2383 78.0394 54.8948Z" fill="#12151C" fill-opacity="0.84"/>
<path d="M68.8081 43.0977L69.9189 41.7177L86.7635 55.103L85.6528 56.4831L68.8081 43.0977Z" fill="#12151C" fill-opacity="0.84"/>
<path d="M70.6686 40.5032C71.6657 41.2956 71.8276 42.7413 71.0302 43.7321C70.2327 44.723 68.7778 44.8838 67.7806 44.0914C66.7834 43.299 66.6215 41.8534 67.419 40.8626C68.2165 39.8717 69.6714 39.7108 70.6686 40.5032Z" fill="#12151C" fill-opacity="0.84"/>
<path d="M51.9526 45.7575L53.6553 46.2676L47.4289 66.7871L45.7262 66.277L51.9526 45.7575Z" fill="#12151C" fill-opacity="0.84"/>
<path d="M54.5538 47.8956C54.1852 49.1103 52.8954 49.7981 51.6729 49.4319C50.4504 49.0656 49.7582 47.784 50.1268 46.5693C50.4954 45.3545 51.7852 44.6667 53.0077 45.033C54.2302 45.3992 54.9224 46.6809 54.5538 47.8956Z" fill="#12151C" fill-opacity="0.84"/>
<path d="M81.7387 63.97C81.3908 63.7176 73.1369 57.8177 65.7677 60.1556C58.3985 62.4934 55.1124 72.0545 54.9762 72.4601C54.8471 72.8451 54.9832 73.2686 55.3129 73.5081C55.6606 73.7606 63.9147 79.6604 71.2839 77.3225C78.6531 74.9846 81.9389 65.4237 82.0754 65.018C82.2048 64.6329 82.0686 64.2091 81.7387 63.97ZM70.7132 75.5466C65.2851 77.2687 58.935 73.6294 57.0043 72.3936C57.8548 70.2738 60.8985 63.6572 66.3384 61.9314C71.7663 60.2094 78.1157 63.848 80.0473 65.0845C79.1968 67.2042 76.1531 73.8209 70.7132 75.5466Z" stroke="#FF6F00" stroke-width="2" mask="url(#path-2-inside-1)"/>
<path d="M66.8139 63.4114C63.8575 64.3493 62.2201 67.5025 63.164 70.4401C64.108 73.3777 67.2813 75.0047 70.2377 74.0668C73.1942 73.1288 74.8315 69.9757 73.8876 67.038C72.9437 64.1004 69.7703 62.4734 66.8139 63.4114ZM69.6671 72.2908C67.696 72.9161 65.5806 71.8316 64.9513 69.8731C64.322 67.9146 65.4135 65.8126 67.3846 65.1873C69.3556 64.562 71.471 65.6466 72.1003 67.605C72.7296 69.5635 71.6382 71.6655 69.6671 72.2908Z" stroke="#FF6F00" stroke-width="2" mask="url(#path-2-inside-1)"/>
<path d="M31.2417 117.432C32.3771 117.432 33.358 117.644 34.1846 118.07C35.0212 118.486 35.6586 119.084 36.0968 119.866C36.545 120.648 36.7691 121.568 36.7691 122.627C36.7691 123.686 36.545 124.606 36.0968 125.388C35.6586 126.16 35.0212 126.754 34.1846 127.169C33.358 127.575 32.3771 127.778 31.2417 127.778H28V117.432H31.2417ZM31.2417 126.664C32.5862 126.664 33.612 126.313 34.3191 125.611C35.0262 124.898 35.3798 123.904 35.3798 122.627C35.3798 121.341 35.0212 120.336 34.3042 119.614C33.5971 118.891 32.5762 118.53 31.2417 118.53H29.3594V126.664H31.2417Z" stroke="#FF6F00" stroke-width="2" mask="url(#path-2-inside-1)"/>
<path d="M46.0316 123.399C46.0316 123.656 46.0166 123.928 45.9867 124.215H39.4436C39.4934 125.017 39.7672 125.645 40.2652 126.1C40.7731 126.546 41.3856 126.768 42.1027 126.768C42.6903 126.768 43.1783 126.635 43.5667 126.368C43.965 126.091 44.2439 125.724 44.4032 125.269H45.8672C45.6481 126.051 45.2099 126.689 44.5526 127.184C43.8953 127.669 43.0787 127.911 42.1027 127.911C41.3258 127.911 40.6287 127.738 40.0112 127.392C39.4037 127.045 38.9257 126.556 38.5771 125.922C38.2285 125.279 38.0543 124.537 38.0543 123.696C38.0543 122.855 38.2236 122.117 38.5622 121.484C38.9008 120.851 39.3738 120.366 39.9814 120.029C40.5988 119.683 41.3059 119.51 42.1027 119.51C42.8795 119.51 43.5667 119.678 44.1642 120.014C44.7618 120.351 45.2199 120.816 45.5386 121.41C45.8672 121.994 46.0316 122.657 46.0316 123.399ZM44.6273 123.117C44.6273 122.602 44.5128 122.162 44.2837 121.796C44.0547 121.42 43.7409 121.138 43.3426 120.95C42.9542 120.752 42.5209 120.653 42.0429 120.653C41.3557 120.653 40.7681 120.87 40.2801 121.306C39.8021 121.741 39.5282 122.345 39.4585 123.117H44.6273Z" stroke="#FF6F00" stroke-width="2" mask="url(#path-2-inside-1)"/>
<path d="M55.2953 123.399C55.2953 123.656 55.2804 123.928 55.2505 124.215H48.7073C48.7571 125.017 49.031 125.645 49.529 126.1C50.0369 126.546 50.6494 126.768 51.3665 126.768C51.954 126.768 52.442 126.635 52.8304 126.368C53.2288 126.091 53.5077 125.724 53.667 125.269H55.131C54.9119 126.051 54.4737 126.689 53.8164 127.184C53.1591 127.669 52.3425 127.911 51.3665 127.911C50.5896 127.911 49.8925 127.738 49.275 127.392C48.6675 127.045 48.1895 126.556 47.8409 125.922C47.4923 125.279 47.318 124.537 47.318 123.696C47.318 122.855 47.4874 122.117 47.826 121.484C48.1646 120.851 48.6376 120.366 49.2451 120.029C49.8626 119.683 50.5697 119.51 51.3665 119.51C52.1433 119.51 52.8305 119.678 53.428 120.014C54.0256 120.351 54.4837 120.816 54.8024 121.41C55.131 121.994 55.2953 122.657 55.2953 123.399ZM53.8911 123.117C53.8911 122.602 53.7766 122.162 53.5475 121.796C53.3184 121.42 53.0047 121.138 52.6064 120.95C52.218 120.752 51.7847 120.653 51.3067 120.653C50.6195 120.653 50.0319 120.87 49.5439 121.306C49.0659 121.741 48.792 122.345 48.7223 123.117H53.8911Z" stroke="#FF6F00" stroke-width="2" mask="url(#path-2-inside-1)"/>
<path d="M58.4492 121.143C58.7181 120.678 59.1164 120.292 59.6443 119.985C60.1821 119.668 60.8045 119.51 61.5116 119.51C62.2386 119.51 62.896 119.683 63.4835 120.029C64.0811 120.376 64.5492 120.866 64.8878 121.499C65.2264 122.122 65.3957 122.85 65.3957 123.681C65.3957 124.502 65.2264 125.235 64.8878 125.878C64.5492 126.521 64.0811 127.021 63.4835 127.377C62.896 127.733 62.2386 127.911 61.5116 127.911C60.8145 127.911 60.197 127.758 59.6592 127.451C59.1314 127.135 58.728 126.744 58.4492 126.279V131.637H57.0897V119.643H58.4492V121.143ZM64.0064 123.681C64.0064 123.067 63.8819 122.533 63.6329 122.078C63.3839 121.623 63.0453 121.276 62.6171 121.039C62.1988 120.801 61.7357 120.682 61.2278 120.682C60.7298 120.682 60.2667 120.806 59.8385 121.054C59.4202 121.291 59.0816 121.642 58.8226 122.107C58.5737 122.563 58.4492 123.092 58.4492 123.696C58.4492 124.309 58.5737 124.849 58.8226 125.314C59.0816 125.769 59.4202 126.12 59.8385 126.368C60.2667 126.605 60.7298 126.724 61.2278 126.724C61.7357 126.724 62.1988 126.605 62.6171 126.368C63.0453 126.12 63.3839 125.769 63.6329 125.314C63.8819 124.849 64.0064 124.304 64.0064 123.681Z" stroke="#FF6F00" stroke-width="2" mask="url(#path-2-inside-1)"/>
<path d="M77.2247 118.681C76.8671 117.933 76.3492 117.357 75.671 116.953C74.9928 116.537 74.2037 116.328 73.3036 116.328C72.4035 116.328 71.5897 116.537 70.8622 116.953C70.147 117.357 69.5798 117.946 69.1606 118.717C68.7537 119.477 68.5502 120.359 68.5502 121.364C68.5502 122.369 68.7537 123.251 69.1606 124.01C69.5798 124.77 70.147 125.358 70.8622 125.775C71.5897 126.179 72.4035 126.381 73.3036 126.381C74.5613 126.381 75.597 126.007 76.4108 125.26C77.2247 124.513 77.6994 123.502 77.835 122.228H72.6932V120.868H79.6291V122.154C79.5304 123.208 79.1975 124.176 78.6303 125.058C78.0631 125.928 77.3171 126.62 76.3923 127.135C75.4676 127.637 74.438 127.888 73.3036 127.888C72.1075 127.888 71.0163 127.612 70.0299 127.061C69.0434 126.497 68.2604 125.719 67.6809 124.727C67.1137 123.735 66.8301 122.614 66.8301 121.364C66.8301 120.114 67.1137 118.993 67.6809 118.001C68.2604 116.996 69.0434 116.218 70.0299 115.667C71.0163 115.103 72.1075 114.821 73.3036 114.821C74.6723 114.821 75.8806 115.158 76.9287 115.832C77.9891 116.506 78.7598 117.455 79.2407 118.681H77.2247Z" stroke="#FF6F00" stroke-width="2" mask="url(#path-2-inside-1)"/>
<path d="M83.5376 119.342C83.8335 118.766 84.2527 118.319 84.7953 118.001C85.3502 117.682 86.0222 117.523 86.8113 117.523V119.25H86.3674C84.4809 119.25 83.5376 120.267 83.5376 122.301V127.778H81.8545V117.707H83.5376V119.342Z" stroke="#FF6F00" stroke-width="2" mask="url(#path-2-inside-1)"/>
<path d="M88.1254 122.705C88.1254 121.676 88.335 120.776 88.7542 120.004C89.1735 119.22 89.7468 118.613 90.4743 118.184C91.2141 117.756 92.0341 117.541 92.9342 117.541C93.822 117.541 94.5927 117.731 95.2462 118.111C95.8997 118.491 96.3867 118.969 96.7073 119.544V117.707H98.4089V127.778H96.7073V125.903C96.3744 126.491 95.875 126.981 95.2092 127.373C94.5557 127.753 93.7912 127.943 92.9157 127.943C92.0156 127.943 91.2018 127.723 90.4743 127.282C89.7468 126.841 89.1735 126.222 88.7542 125.425C88.335 124.629 88.1254 123.722 88.1254 122.705ZM96.7073 122.724C96.7073 121.964 96.5532 121.303 96.2449 120.739C95.9367 120.175 95.5174 119.747 94.9872 119.453C94.4694 119.146 93.896 118.993 93.2671 118.993C92.6383 118.993 92.0649 119.14 91.547 119.434C91.0292 119.728 90.6161 120.157 90.3078 120.721C89.9996 121.284 89.8455 121.946 89.8455 122.705C89.8455 123.477 89.9996 124.151 90.3078 124.727C90.6161 125.291 91.0292 125.726 91.547 126.032C92.0649 126.326 92.6383 126.473 93.2671 126.473C93.896 126.473 94.4694 126.326 94.9872 126.032C95.5174 125.726 95.9367 125.291 96.2449 124.727C96.5532 124.151 96.7073 123.483 96.7073 122.724Z" stroke="#FF6F00" stroke-width="2" mask="url(#path-2-inside-1)"/>
<path d="M100.624 122.705C100.624 121.676 100.834 120.776 101.253 120.004C101.672 119.22 102.246 118.613 102.973 118.184C103.713 117.756 104.539 117.541 105.452 117.541C106.241 117.541 106.975 117.725 107.653 118.093C108.331 118.448 108.849 118.92 109.206 119.508V114.178H110.908V127.778H109.206V125.885C108.873 126.485 108.38 126.981 107.727 127.373C107.073 127.753 106.309 127.943 105.433 127.943C104.533 127.943 103.713 127.723 102.973 127.282C102.246 126.841 101.672 126.222 101.253 125.425C100.834 124.629 100.624 123.722 100.624 122.705ZM109.206 122.724C109.206 121.964 109.052 121.303 108.744 120.739C108.436 120.175 108.016 119.747 107.486 119.453C106.968 119.146 106.395 118.993 105.766 118.993C105.137 118.993 104.564 119.14 104.046 119.434C103.528 119.728 103.115 120.157 102.807 120.721C102.499 121.284 102.344 121.946 102.344 122.705C102.344 123.477 102.499 124.151 102.807 124.727C103.115 125.291 103.528 125.726 104.046 126.032C104.564 126.326 105.137 126.473 105.766 126.473C106.395 126.473 106.968 126.326 107.486 126.032C108.016 125.726 108.436 125.291 108.744 124.727C109.052 124.151 109.206 123.483 109.206 122.724Z" stroke="#FF6F00" stroke-width="2" mask="url(#path-2-inside-1)"/>
<path d="M123 122.356C123 122.675 122.982 123.012 122.945 123.367H114.843C114.905 124.359 115.244 125.137 115.861 125.701C116.49 126.252 117.248 126.528 118.136 126.528C118.863 126.528 119.467 126.363 119.948 126.032C120.441 125.689 120.787 125.235 120.984 124.672H122.797C122.525 125.64 121.983 126.43 121.169 127.043C120.355 127.643 119.344 127.943 118.136 127.943C117.174 127.943 116.311 127.729 115.546 127.3C114.794 126.871 114.202 126.265 113.771 125.481C113.339 124.684 113.123 123.765 113.123 122.724C113.123 121.682 113.333 120.77 113.752 119.985C114.171 119.201 114.757 118.601 115.509 118.184C116.274 117.756 117.149 117.541 118.136 117.541C119.097 117.541 119.948 117.75 120.688 118.166C121.428 118.583 121.995 119.158 122.39 119.894C122.797 120.616 123 121.437 123 122.356ZM121.261 122.007C121.261 121.37 121.12 120.825 120.836 120.371C120.552 119.906 120.164 119.557 119.671 119.324C119.19 119.079 118.654 118.956 118.062 118.956C117.211 118.956 116.483 119.226 115.879 119.765C115.287 120.304 114.948 121.051 114.862 122.007H121.261Z" stroke="#FF6F00" stroke-width="2" mask="url(#path-2-inside-1)"/>
<path d="M65.4501 83.1384C62.726 85.3654 59.3161 87.4115 55.2628 89.2556C53.893 94.0839 53.8256 98.3086 54.1192 101.374C54.5859 106.248 56.0141 109.293 56.0746 109.42L56.6057 110.535L70.4522 105.925L69.7535 104.559C66.0741 97.3644 66.1092 90.6998 66.7866 86.3755C67.057 84.6491 67.5922 83.1 68.1621 81.8274C67.7816 81.8178 67.4066 81.7888 67.0385 81.7418C66.5705 82.1858 66.0444 82.6525 65.4501 83.1384Z" stroke="#FF6F00" stroke-width="2" mask="url(#path-2-inside-1)"/>
<path d="M76.7858 78.4985C76.5186 78.7562 76.2346 79.0036 75.9347 79.239C77.157 79.9041 78.518 80.8077 79.7746 82.0084C82.9255 85.019 86.9756 90.2603 88.3771 98.1329L88.6432 99.6281L102.507 95.0123L102.238 93.8054C102.207 93.6676 101.455 90.3808 98.8329 86.2212C97.2313 83.6806 94.695 80.4783 90.8654 77.541C86.9963 78.3371 83.2985 78.7132 79.8106 78.662C78.6793 78.6453 77.6703 78.5838 76.7858 78.4985Z" stroke="#FF6F00" stroke-width="2" mask="url(#path-2-inside-1)"/>
<path d="M54.69 77.6495L52.0814 69.9138C51.2768 67.5279 51.4361 65.0482 52.3481 62.893C48.1638 62.2477 41.3778 62.1389 32.43 65.1181L30.8294 65.651L40.0865 93.102L41.6871 92.5691C48.8607 90.1806 54.4407 87.1156 58.272 83.459C58.4707 83.2693 58.6589 83.0829 58.8385 82.8997C56.954 81.717 55.4517 79.9082 54.69 77.6495Z" stroke="#FF6F00" stroke-width="2" mask="url(#path-2-inside-1)"/>
<path d="M78.0394 54.8948C77.7685 55.1534 77.5159 55.4063 77.2801 55.6527C79.3241 56.826 80.9628 58.7142 81.7699 61.1077L84.3786 68.8433C85.1387 71.0975 85.0385 73.4354 84.256 75.5043C88.4608 76.1092 95.1391 76.1463 103.881 73.2356L105.482 72.7026L96.1353 44.9863L94.5347 45.5192C87.361 47.9077 81.8707 51.2383 78.0394 54.8948Z" stroke="#FF6F00" stroke-width="2" mask="url(#path-2-inside-1)"/>
<path d="M68.8081 43.0977L69.9189 41.7177L86.7635 55.103L85.6528 56.4831L68.8081 43.0977Z" stroke="#FF6F00" stroke-width="2" mask="url(#path-2-inside-1)"/>
<path d="M70.6686 40.5032C71.6657 41.2956 71.8276 42.7413 71.0302 43.7321C70.2327 44.723 68.7778 44.8838 67.7806 44.0914C66.7834 43.299 66.6215 41.8534 67.419 40.8626C68.2165 39.8717 69.6714 39.7108 70.6686 40.5032Z" stroke="#FF6F00" stroke-width="2" mask="url(#path-2-inside-1)"/>
<path d="M51.9526 45.7575L53.6553 46.2676L47.4289 66.7871L45.7262 66.277L51.9526 45.7575Z" stroke="#FF6F00" stroke-width="2" mask="url(#path-2-inside-1)"/>
<path d="M54.5538 47.8956C54.1852 49.1103 52.8954 49.7981 51.6729 49.4319C50.4504 49.0656 49.7582 47.784 50.1268 46.5693C50.4954 45.3545 51.7852 44.6667 53.0077 45.033C54.2302 45.3992 54.9224 46.6809 54.5538 47.8956Z" stroke="#FF6F00" stroke-width="2" mask="url(#path-2-inside-1)"/>
<path d="M189.175 32.7876L152.505 39.4166L143.819 47.5834L138.909 20.4242C137.925 14.9828 142.184 9.61992 148.477 8.4823L183.68 2.11843C189.925 0.989361 195.84 4.51326 196.823 9.95457L198.791 20.8372C199.774 26.2785 195.515 31.6414 189.223 32.7791L189.175 32.7876Z" fill="#D1EBE1"/>
<path d="M184.653 13.1462L150.538 19.3134C150.018 19.4074 149.515 19.0586 149.421 18.5381L149.155 17.0713C149.061 16.5508 149.41 16.048 149.931 15.9539L184.045 9.7868C184.566 9.69271 185.069 10.0416 185.163 10.562L185.428 12.0288C185.522 12.5493 185.173 13.0521 184.653 13.1462Z" fill="#308E7C"/>
<path d="M185.754 19.2439L151.64 25.411C151.119 25.5051 150.616 25.1562 150.522 24.6358L150.257 23.169C150.163 22.6485 150.512 22.1457 151.032 22.0516L185.147 15.8845C185.667 15.7904 186.17 16.1392 186.264 16.6597L186.529 18.1265C186.624 18.647 186.275 19.1498 185.754 19.2439Z" fill="#308E7C"/>
<path d="M172.519 27.9333L152.741 31.5087C152.221 31.6027 151.718 31.2539 151.624 30.7334L151.359 29.2666C151.264 28.7462 151.613 28.2433 152.134 28.1492L171.912 24.5739C172.432 24.4798 172.935 24.8286 173.029 25.3491L173.294 26.8159C173.388 27.3364 173.04 27.8392 172.519 27.9333Z" fill="#308E7C"/>
</svg>
