<svg width="202" height="161" viewBox="0 0 202 161" fill="none" xmlns="http://www.w3.org/2000/svg">
<circle cx="75" cy="86" r="75" fill="white"/>
<path d="M30.6325 103.968C30.3249 100.548 28.7816 98.0452 27.2155 95.4785C24.1175 90.4672 20.8373 85.1596 28.2406 71.5656C28.5087 71.0476 28.3151 70.4061 27.8078 70.1313C27.3049 69.8457 26.6702 70.03 26.3902 70.5427L26.3898 70.5436C18.3828 85.2293 22.0047 91.0769 25.4216 96.6109C26.8738 98.9337 28.2691 101.256 28.5538 104.16C28.6058 104.745 29.1131 105.177 29.6871 105.124C30.2612 105.071 30.6844 104.554 30.6325 103.968Z" fill="#27AE60"/>
<path d="M55.7925 71.6062C55.4607 72.5364 54.9922 73.4097 54.4029 74.1961C53.3646 75.6226 51.8559 76.6186 50.1545 77.0009C48.3436 77.4016 46.1681 77.1519 43.6851 76.0079C40.0917 74.3529 35.9059 70.8804 31.3045 64.905C33.9241 64.6321 38.5768 63.7727 42.045 61.0841C44.9779 58.8078 47.626 57.9716 49.8185 58.1806C50.7606 58.257 51.6746 58.5444 52.4951 59.0226C53.3048 59.5011 54.0118 60.141 54.5738 60.9041C55.4746 62.1549 56.0718 63.6056 56.3164 65.1373C57.0593 65.2799 57.792 65.4738 58.5089 65.718C58.3076 63.5033 57.5203 61.3858 56.231 59.5917C55.4962 58.5986 54.5722 57.767 53.5145 57.147C52.4269 56.5132 51.2154 56.1325 49.9666 56.0321C47.29 55.8056 44.1464 56.7637 40.758 59.3943C36.5096 62.6868 30.1142 62.8784 29.3283 62.8784C28.7509 62.8398 28.252 63.2858 28.2141 63.8746C28.1979 64.1268 28.2698 64.3766 28.4172 64.5799C33.7476 71.8443 38.6281 75.9905 42.8195 77.9358C45.7467 79.2772 48.3606 79.5617 50.5873 79.0972C52.7807 78.6059 54.7251 77.3207 56.0601 75.4795C56.761 74.5338 57.3197 73.4867 57.7173 72.3728L57.5522 72.2915C56.9853 72.0136 56.3967 71.7844 55.7925 71.6062Z" fill="#27AE60"/>
<path d="M70.9067 80.7986C62.4213 66.38 55.6444 66.6471 49.2377 66.9026C46.5155 67.013 43.8674 67.1175 41.2648 65.8922C40.7215 65.6984 40.127 65.9905 39.9371 66.5445C39.7735 67.0215 39.962 67.5501 40.3878 67.8085C43.446 69.2428 46.339 69.1325 49.3117 69.0105C55.1205 68.8015 61.271 68.5576 69.1128 81.8903C69.4085 82.3954 70.0498 82.5606 70.5451 82.2591C71.0404 81.9577 71.2024 81.3038 70.9067 80.7986Z" fill="#27AE60"/>
<path d="M38.0073 96.7561C37.6884 93.5042 36.6178 91.0537 35.0859 89.329C33.5771 87.6392 31.5202 86.5627 29.2942 86.2978C28.1422 86.1509 26.9752 86.1802 25.8317 86.3849C25.8317 86.4488 25.8317 86.5068 25.8317 86.5707C25.8809 87.2172 25.9839 87.8582 26.1392 88.487C27.0921 88.3115 28.0656 88.284 29.0265 88.4057C30.7532 88.6021 32.3526 89.4268 33.5312 90.7285C34.7726 92.1279 35.6497 94.172 35.923 96.9361C36.316 100.931 35.4617 106.361 32.6997 113.439C31.1564 111.256 28.0982 107.574 24.0833 105.856C20.6664 104.398 18.6447 102.488 17.7108 100.461C17.3009 99.6006 17.0812 98.659 17.0672 97.7026C17.0719 96.7459 17.2657 95.7998 17.6367 94.9211C18.2482 93.4995 19.181 92.246 20.3589 91.2627C20.1193 90.5296 19.9289 89.7808 19.7894 89.0212C18.0078 90.3057 16.6023 92.0601 15.7233 94.0965C15.247 95.2367 15.001 96.4632 15 97.7026C15.0051 98.9807 15.287 100.242 15.8258 101.396C16.9647 103.875 19.3623 106.175 23.2804 107.853C28.5083 110.083 31.9821 116.186 32.0163 116.25C32.3008 116.76 32.9369 116.939 33.4373 116.649C33.6381 116.532 33.7954 116.351 33.8842 116.134C37.3866 107.801 38.4686 101.419 38.0073 96.7561Z" fill="#27AE60"/>
<path d="M67.6578 94.7788C67.3259 94.2977 66.6745 94.182 66.2027 94.5204C63.4521 96.5006 62.1024 99.1195 60.7128 101.808C58.0021 107.034 55.1376 112.603 39.8923 112.841C39.3167 112.851 38.8579 113.334 38.8673 113.921C38.8767 114.508 39.3509 114.976 39.9265 114.967C56.4132 114.688 59.5739 108.579 62.5637 102.772C63.8279 100.327 65.0637 97.9349 67.4043 96.2625C67.8762 95.9242 67.9896 95.2599 67.6578 94.7788Z" fill="#27AE60"/>
<path d="M75.5277 85.6589C75.3336 85.5459 75.1092 85.4992 74.8874 85.5255L74.9159 85.5545C66.0831 86.623 60.1206 88.8644 56.362 91.6169C53.7594 93.5274 52.2104 95.6818 51.5156 97.9058C50.8346 100.081 50.9478 102.435 51.8345 104.532C52.2874 105.623 52.8978 106.638 53.6455 107.545L53.7936 107.441C54.3184 107.074 54.8118 106.662 55.2685 106.21C54.6452 105.459 54.1365 104.618 53.7594 103.713C53.0678 102.077 52.9808 100.241 53.5145 98.5446C54.084 96.7445 55.3767 94.9559 57.5921 93.3184C60.7869 90.9956 65.8212 89.0154 73.2131 87.9179C72.1368 90.3743 70.5365 94.8862 71.0889 99.3111C71.5559 103.045 70.9466 105.797 69.688 107.644C69.1528 108.437 68.4528 109.099 67.6378 109.584C66.8249 110.06 65.9261 110.364 64.9954 110.478C63.4811 110.647 61.9492 110.448 60.5249 109.897C60.0249 110.478 59.4865 111.023 58.9133 111.529C60.8938 112.458 63.0845 112.821 65.2517 112.58C66.4554 112.43 67.6173 112.035 68.6686 111.419C69.7513 110.774 70.6809 109.894 71.3908 108.84C72.9227 106.587 73.6687 103.335 73.1448 99.0324C72.4272 93.2835 75.9068 87.134 75.9182 87.1166C76.2051 86.6041 76.0302 85.9515 75.5277 85.6589Z" fill="#27AE60"/>
<path d="M45.2839 100.997C42.9253 100.997 40.915 100.547 39.2529 99.6473C37.6067 98.7631 36.3561 97.5551 35.5013 96.0235C34.6624 94.4919 34.2429 92.7787 34.2429 90.8839C34.2429 88.4206 34.7494 86.1074 35.7625 83.9442C36.7914 81.781 38.319 80.0283 40.3451 78.6861C42.3871 77.344 44.8407 76.6729 47.7058 76.6729C49.4629 76.6729 51.0142 76.9966 52.3597 77.644C53.7052 78.2914 54.7578 79.2546 55.5176 80.5336C56.2775 81.7968 56.6574 83.3363 56.6574 85.1521C56.6574 86.968 56.3408 88.5706 55.7076 89.9602C55.0902 91.3497 54.275 92.4234 53.2619 93.1813C52.2647 93.9234 51.22 94.2945 50.1277 94.2945C48.5131 94.2945 47.4684 93.6313 46.9935 92.305C46.6927 92.9208 46.2812 93.4103 45.7588 93.7734C45.2523 94.1208 44.6745 94.2945 44.0255 94.2945C42.9649 94.2945 42.1339 93.9471 41.5324 93.2524C40.9467 92.5418 40.6538 91.6023 40.6538 90.4339C40.6538 89.1707 40.9467 87.9785 41.5324 86.8574C42.118 85.7206 42.8937 84.8126 43.8593 84.1337C44.8407 83.4389 45.8775 83.0915 46.9698 83.0915C47.318 83.0915 47.5475 83.1626 47.6583 83.3047C47.785 83.431 47.8879 83.6679 47.967 84.0152C48.2994 83.9521 48.6477 83.9205 49.0117 83.9205C49.7874 83.9205 50.1752 84.1968 50.1752 84.7495C50.1752 85.0811 50.0565 85.8706 49.819 87.118C49.455 88.9338 49.2729 90.197 49.2729 90.9076C49.2729 91.176 49.36 91.397 49.5341 91.5707C49.7082 91.7444 49.9932 91.8313 50.3889 91.8313C50.9113 91.8313 51.4495 91.5392 52.0035 90.9549C52.5575 90.3549 53.0166 89.5417 53.3807 88.5154C53.7606 87.4732 53.9505 86.3364 53.9505 85.1047C53.9505 83.21 53.3648 81.7652 52.1935 80.7704C51.0379 79.7756 49.4471 79.2783 47.4209 79.2783C45.2523 79.2783 43.4081 79.8072 41.8885 80.8651C40.3689 81.9231 39.2292 83.3284 38.4694 85.0811C37.7096 86.818 37.3296 88.7128 37.3296 90.7655C37.3296 93.0866 37.9945 94.9419 39.3242 96.3314C40.6696 97.7367 42.6879 98.4394 45.3789 98.4394C46.6136 98.4394 47.8325 98.2736 49.0355 97.942C50.2544 97.6262 51.5128 97.1288 52.8108 96.4498C53.0166 96.3393 53.2145 96.284 53.4044 96.284C53.721 96.284 53.9822 96.4025 54.188 96.6393C54.3937 96.892 54.4966 97.192 54.4966 97.5393C54.4966 97.792 54.4333 98.0288 54.3067 98.2499C54.18 98.4867 53.9822 98.6841 53.7131 98.842C52.5734 99.5368 51.2516 100.066 49.7478 100.429C48.2599 100.808 46.7719 100.997 45.2839 100.997ZM44.7378 91.9023C45.0861 91.9023 45.4185 91.6971 45.7351 91.2865C46.0517 90.876 46.2812 90.3312 46.4236 89.6523L47.3022 85.2942C46.6373 85.31 46.02 85.5627 45.4501 86.0521C44.8961 86.5258 44.4529 87.1574 44.1205 87.9469C43.788 88.7364 43.6218 89.5733 43.6218 90.4575C43.6218 90.947 43.7168 91.3102 43.9068 91.5471C44.1125 91.7839 44.3896 91.9023 44.7378 91.9023Z" fill="#27AE60"/>
<path d="M100.207 98.48C100.366 98.48 100.484 98.5589 100.564 98.7168C100.659 98.8905 100.706 99.1116 100.706 99.38C100.706 99.8853 100.572 100.383 100.302 100.872C99.7642 101.851 99.0519 102.601 98.1655 103.122C97.2948 103.659 96.4005 103.928 95.4824 103.928C94.5484 103.928 93.7649 103.778 93.1317 103.477C92.4985 103.193 91.9603 102.759 91.5171 102.175C91.0739 101.606 90.6465 100.848 90.2349 99.9011C89.8075 98.9221 89.4514 98.1879 89.1664 97.6984C88.8973 97.2247 88.6124 96.8773 88.3117 96.6562C88.0109 96.4352 87.6231 96.2773 87.1482 96.1825C85.3911 95.8352 83.9744 94.9667 82.898 93.5772C81.8374 92.1877 81.3071 90.3955 81.3071 88.2007C81.3071 85.8006 81.7424 83.6848 82.6131 81.8531C83.4995 80.0215 84.6946 78.6083 86.1984 77.6135C87.718 76.6188 89.396 76.1214 91.2322 76.1214C92.641 76.1214 93.9073 76.4372 95.0312 77.0688C96.171 77.7004 97.0732 78.632 97.7381 79.8636C98.4029 81.0794 98.7353 82.54 98.7353 84.2453C98.7353 86.2349 98.4346 88.027 97.833 89.6218C97.2315 91.2166 96.4005 92.5429 95.3399 93.6009C94.2793 94.6588 93.0605 95.4088 91.6833 95.8509C92.0791 96.072 92.4194 96.3957 92.7043 96.822C93.0051 97.2484 93.3217 97.8642 93.6541 98.6695C94.0182 99.5537 94.406 100.185 94.8175 100.564C95.2449 100.943 95.7673 101.133 96.3847 101.133C96.907 101.133 97.4136 100.951 97.9043 100.588C98.395 100.241 98.949 99.6642 99.5664 98.8589C99.7563 98.6063 99.97 98.48 100.207 98.48ZM89.0477 93.5298C90.2824 93.5298 91.3667 93.1509 92.3007 92.3929C93.2504 91.635 93.9786 90.585 94.4851 89.2429C94.9917 87.8849 95.2449 86.3533 95.2449 84.648C95.2449 82.769 94.8492 81.3479 94.0577 80.3847C93.2663 79.4057 92.2453 78.9162 90.9947 78.9162C89.7917 78.9162 88.7153 79.3031 87.7655 80.0768C86.8316 80.8347 86.1034 81.8847 85.5811 83.2269C85.0587 84.569 84.7975 86.0928 84.7975 87.7981C84.7975 89.6771 85.1933 91.1061 85.9847 92.085C86.7762 93.0482 87.7972 93.5298 89.0477 93.5298Z" fill="#27AE60"/>
<path d="M102.502 96.3246C101.79 96.3246 101.204 96.001 100.745 95.3536C100.302 94.6904 100.08 93.8693 100.08 92.8903C100.08 91.7061 100.159 90.6245 100.318 89.6455C100.476 88.6507 100.737 87.6007 101.101 86.4954C101.259 86.0217 101.481 85.6822 101.766 85.4769C102.051 85.2717 102.502 85.169 103.119 85.169C103.468 85.169 103.705 85.2243 103.832 85.3348C103.974 85.4454 104.045 85.6112 104.045 85.8322C104.045 85.9585 103.958 86.3849 103.784 87.1112C103.626 87.6954 103.499 88.2244 103.404 88.6981C103.088 90.356 102.929 91.4613 102.929 92.014C102.929 92.3456 102.969 92.5824 103.048 92.7245C103.127 92.8509 103.254 92.914 103.428 92.914C103.666 92.914 103.958 92.6772 104.307 92.2035C104.671 91.7298 105.051 91.0113 105.446 90.0481C105.858 89.0849 106.254 87.9007 106.634 86.4954C106.76 86.0217 106.95 85.6822 107.203 85.4769C107.473 85.2717 107.868 85.169 108.391 85.169C108.755 85.169 109.008 85.2164 109.15 85.3111C109.293 85.3901 109.364 85.548 109.364 85.7848C109.364 86.1796 109.166 87.2612 108.771 89.0297C108.327 91.0508 108.106 92.2982 108.106 92.7719C108.106 93.0719 108.169 93.3088 108.296 93.4825C108.422 93.6404 108.589 93.7193 108.794 93.7193C109.111 93.7193 109.483 93.5298 109.91 93.1509C110.353 92.7561 110.939 92.1245 111.667 91.2561C111.857 91.035 112.071 90.9245 112.308 90.9245C112.514 90.9245 112.672 91.0192 112.783 91.2087C112.91 91.3982 112.973 91.6587 112.973 91.9903C112.973 92.6219 112.823 93.1114 112.522 93.4588C111.841 94.2956 111.105 94.9825 110.314 95.5194C109.538 96.0562 108.652 96.3246 107.655 96.3246C106.895 96.3246 106.333 96.0325 105.969 95.4483C105.62 94.8641 105.446 94.043 105.446 92.9851C105.177 94.0588 104.774 94.8878 104.235 95.472C103.697 96.0404 103.119 96.3246 102.502 96.3246Z" fill="#27AE60"/>
<path d="M121.638 90.9245C121.844 90.9245 122.002 91.0192 122.113 91.2087C122.239 91.3982 122.303 91.6587 122.303 91.9903C122.303 92.6219 122.152 93.1114 121.852 93.4588C121.266 94.1693 120.435 94.8246 119.358 95.4246C118.298 96.0246 117.158 96.3246 115.939 96.3246C114.277 96.3246 112.987 95.8746 112.069 94.9746C111.151 94.0746 110.692 92.843 110.692 91.2798C110.692 90.1902 110.921 89.1797 111.38 88.2481C111.839 87.3007 112.473 86.5507 113.28 85.998C114.103 85.4454 115.029 85.169 116.058 85.169C116.976 85.169 117.712 85.4454 118.266 85.998C118.82 86.5349 119.097 87.2691 119.097 88.2007C119.097 89.2902 118.701 90.2297 117.91 91.0192C117.134 91.7929 115.813 92.4087 113.945 92.8666C114.34 93.593 115.092 93.9562 116.2 93.9562C116.913 93.9562 117.72 93.7114 118.622 93.2219C119.54 92.7166 120.332 92.0614 120.997 91.2561C121.187 91.035 121.4 90.9245 121.638 90.9245ZM115.654 87.4902C115.069 87.4902 114.57 87.8296 114.158 88.5086C113.763 89.1876 113.565 90.0087 113.565 90.9718V91.0192C114.499 90.7982 115.235 90.4666 115.773 90.0245C116.311 89.5823 116.58 89.0692 116.58 88.4849C116.58 88.1849 116.493 87.9481 116.319 87.7744C116.161 87.5849 115.939 87.4902 115.654 87.4902Z" fill="#27AE60"/>
<path d="M124.786 96.8457C123.963 96.8457 123.329 96.6562 122.886 96.2773C122.459 95.8983 122.245 95.472 122.245 94.9983C122.245 94.5877 122.396 94.2325 122.696 93.9325C122.997 93.6325 123.44 93.4825 124.026 93.4825C124.232 93.4825 124.469 93.5061 124.738 93.5535C125.023 93.5851 125.237 93.6088 125.379 93.6246C125.364 93.214 125.269 92.8272 125.094 92.464C124.936 92.1008 124.73 91.7535 124.477 91.4219C124.224 91.0745 123.986 90.7745 123.765 90.5218C123.274 91.4534 122.783 92.2272 122.293 92.843C121.818 93.4588 121.295 94.043 120.726 94.5956C120.441 94.8799 120.14 95.022 119.823 95.022C119.57 95.022 119.364 94.9351 119.206 94.7614C119.048 94.572 118.968 94.343 118.968 94.0746C118.968 93.7588 119.079 93.4667 119.301 93.1982L119.61 92.8193C120.48 91.7456 121.137 90.8613 121.58 90.1666C121.849 89.7087 122.166 89.1007 122.53 88.3428C122.894 87.5691 123.25 86.7717 123.599 85.9506C123.899 85.2559 124.525 84.9085 125.474 84.9085C125.918 84.9085 126.226 84.948 126.4 85.0269C126.574 85.1059 126.662 85.2322 126.662 85.4059C126.662 85.5006 126.63 85.6506 126.567 85.8559C126.503 86.0612 126.416 86.2664 126.305 86.4717C126.02 87.0401 125.878 87.5217 125.878 87.9165C125.878 88.1533 125.957 88.4139 126.115 88.6981C126.29 88.9823 126.551 89.3376 126.899 89.7639C127.406 90.4271 127.785 90.9955 128.039 91.4692C128.308 91.9271 128.442 92.4324 128.442 92.9851C128.442 93.143 128.427 93.364 128.395 93.6482C129.171 93.3482 130.081 92.5508 131.125 91.2561C131.315 91.035 131.529 90.9245 131.767 90.9245C131.972 90.9245 132.131 91.0192 132.241 91.2087C132.368 91.3982 132.431 91.6587 132.431 91.9903C132.431 92.5903 132.281 93.0798 131.98 93.4588C131.189 94.4377 130.429 95.1088 129.701 95.472C128.988 95.8194 128.102 96.0088 127.041 96.0404C126.408 96.5773 125.656 96.8457 124.786 96.8457Z" fill="#27AE60"/>
<path d="M134.42 87.4191C134.388 88.2086 134.373 88.8244 134.373 89.2665C134.373 90.4034 134.428 91.2955 134.539 91.9429C134.665 92.5745 134.863 93.0324 135.132 93.3167C135.417 93.5851 135.805 93.7193 136.296 93.7193C136.549 93.7193 136.85 93.6404 137.198 93.4825C137.546 93.3246 137.863 93.1193 138.148 92.8666C138.322 92.7087 138.496 92.6298 138.67 92.6298C138.86 92.6298 139.011 92.7403 139.121 92.9614C139.248 93.1667 139.311 93.4193 139.311 93.7193C139.311 94.0193 139.248 94.3114 139.121 94.5956C139.011 94.8799 138.837 95.1167 138.599 95.3062C137.776 95.9852 136.842 96.3246 135.797 96.3246C134.293 96.3246 133.193 95.7009 132.497 94.4535C131.8 93.1903 131.452 91.5482 131.452 89.5271C131.452 88.8323 131.476 88.1297 131.523 87.4191H130.597C130.122 87.4191 129.798 87.3323 129.624 87.1586C129.466 86.9849 129.386 86.7086 129.386 86.3296C129.386 85.4454 129.743 85.0032 130.455 85.0032H131.808C132.077 83.2663 132.489 81.6795 133.043 80.2426C133.597 78.8057 134.262 77.6609 135.037 76.8083C135.829 75.9556 136.676 75.5293 137.578 75.5293C138.243 75.5293 138.765 75.8214 139.145 76.4056C139.525 76.9898 139.715 77.7241 139.715 78.6083C139.715 81.0558 138.686 83.1874 136.628 85.0032H139.288C139.541 85.0032 139.723 85.0585 139.834 85.169C139.945 85.2796 140 85.4848 140 85.7848C140 86.8744 139.106 87.4191 137.317 87.4191H134.42ZM136.937 77.803C136.7 77.803 136.43 78.103 136.13 78.7031C135.845 79.2873 135.568 80.1084 135.299 81.1663C135.045 82.2084 134.832 83.369 134.658 84.648C135.591 83.8427 136.288 82.9427 136.747 81.9479C137.222 80.9373 137.459 80.0215 137.459 79.2004C137.459 78.2688 137.285 77.803 136.937 77.803Z" fill="#27AE60"/>
<path d="M189.175 32.7876L152.505 39.4166L143.819 47.5834L138.909 20.4242C137.925 14.9828 142.184 9.61992 148.477 8.4823L183.68 2.11843C189.925 0.989361 195.84 4.51326 196.823 9.95457L198.791 20.8372C199.774 26.2785 195.515 31.6414 189.223 32.7791L189.175 32.7876Z" fill="#D1EBE1"/>
<path d="M184.653 13.1462L150.538 19.3134C150.018 19.4074 149.515 19.0586 149.421 18.5381L149.155 17.0713C149.061 16.5508 149.41 16.048 149.931 15.9539L184.045 9.7868C184.566 9.69271 185.069 10.0416 185.163 10.562L185.428 12.0288C185.522 12.5493 185.173 13.0521 184.653 13.1462Z" fill="#308E7C"/>
<path d="M185.754 19.2439L151.64 25.411C151.119 25.5051 150.616 25.1562 150.522 24.6358L150.257 23.169C150.163 22.6485 150.512 22.1457 151.032 22.0516L185.147 15.8845C185.667 15.7904 186.17 16.1392 186.264 16.6597L186.529 18.1265C186.624 18.647 186.275 19.1498 185.754 19.2439Z" fill="#308E7C"/>
<path d="M172.519 27.9333L152.741 31.5087C152.221 31.6027 151.718 31.2539 151.624 30.7334L151.359 29.2666C151.264 28.7462 151.613 28.2433 152.134 28.1492L171.912 24.5739C172.432 24.4798 172.935 24.8286 173.029 25.3491L173.294 26.8159C173.388 27.3364 173.04 27.8392 172.519 27.9333Z" fill="#308E7C"/>
</svg>
