<svg width="566" height="712" viewBox="0 0 566 712" fill="none" xmlns="http://www.w3.org/2000/svg">
<path d="M0 91.0547C138.927 91.0547 251.55 207.394 251.55 353.719C251.55 500.044 138.927 620.947 0 620.947" stroke="#F7B500" stroke-width="2" stroke-miterlimit="10"/>
<path d="M0 17C177.586 17 321.55 165.713 321.55 352.757C321.55 539.801 177.586 694.349 0 694.349" stroke="#F7B500" stroke-width="2" stroke-miterlimit="10"/>
<path d="M284 555C303.882 555 320 538.882 320 519C320 499.118 303.882 483 284 483C264.118 483 248 499.118 248 519C248 538.882 264.118 555 284 555Z" fill="#192538" stroke="#F7B500" stroke-width="2" stroke-miterlimit="10"/>
<path d="M298.16 505.039H301.2C301.656 505.039 301.96 505.343 301.96 505.799V530.119C301.96 530.575 301.656 530.879 301.2 530.879H267.76C267.304 530.879 267 530.575 267 530.119V505.799C267 505.343 267.304 505.039 267.76 505.039H270.8" stroke="#F7B500" stroke-width="2" stroke-miterlimit="10"/>
<path d="M288.281 532.398V535.438" stroke="#F7B500" stroke-width="2" stroke-miterlimit="10"/>
<path d="M281.441 535.438V532.398" stroke="#F7B500" stroke-width="2" stroke-miterlimit="10"/>
<path d="M291.318 535.441H278.398" stroke="#F7B500" stroke-width="2" stroke-miterlimit="10"/>
<path d="M267 526.32H301.96" stroke="#F7B500" stroke-width="2" stroke-miterlimit="10"/>
<path d="M283.719 528.602H285.999" stroke="#F7B500" stroke-width="2" stroke-miterlimit="10"/>
<path d="M273.078 524.04V502H295.878V524.04" stroke="#F7B500" stroke-width="2" stroke-miterlimit="10"/>
<path d="M273.078 506.559H295.878" stroke="#F7B500" stroke-width="2" stroke-miterlimit="10"/>
<path d="M275.359 504.281H276.879" stroke="#F7B500" stroke-width="2" stroke-miterlimit="10"/>
<path d="M278.398 504.281H279.918" stroke="#F7B500" stroke-width="2" stroke-miterlimit="10"/>
<path d="M281.441 504.281H282.961" stroke="#F7B500" stroke-width="2" stroke-miterlimit="10"/>
<path d="M284 229.668C303.882 229.668 320 213.637 320 193.861C320 174.086 303.882 158.055 284 158.055C264.118 158.055 248 174.086 248 193.861C248 213.637 264.118 229.668 284 229.668Z" fill="#192538" stroke="#F7B500" stroke-width="2" stroke-miterlimit="10"/>
<path d="M281.44 201.596C278.628 200.84 276.424 198.648 275.664 195.851M291.776 195.851C291.016 198.648 288.812 200.764 286 201.596L291.776 195.851ZM286 185.57C288.812 186.326 291.016 188.518 291.776 191.315L286 185.57ZM275.664 191.315C276.424 188.518 278.628 186.402 281.44 185.57L275.664 191.315Z" stroke="#F7B500" stroke-width="2" stroke-miterlimit="10"/>
<path d="M281.59 208.325C275.054 207.417 269.81 202.202 268.898 195.701M298.538 195.701C297.626 202.202 292.382 207.417 285.846 208.325L298.538 195.701ZM285.846 178.844C292.382 179.751 297.626 184.967 298.538 191.468L285.846 178.844ZM268.898 191.468C269.81 184.967 275.054 179.751 281.59 178.844L268.898 191.468Z" stroke="#F7B500" stroke-width="2" stroke-miterlimit="10"/>
<path d="M286.001 201.899C286.001 201.067 285.317 200.387 284.481 200.387H282.961C282.125 200.387 281.441 201.067 281.441 201.899V208.702C281.441 209.533 282.125 210.214 282.961 210.214H284.481C285.317 210.214 286.001 209.533 286.001 208.702V201.899Z" stroke="#F7B500" stroke-width="2" stroke-miterlimit="10"/>
<path d="M300.439 192.828C300.439 191.997 299.755 191.316 298.919 191.316H292.079C291.243 191.316 290.559 191.997 290.559 192.828V194.34C290.559 195.172 291.243 195.852 292.079 195.852H298.919C299.755 195.852 300.439 195.172 300.439 194.34V192.828Z" stroke="#F7B500" stroke-width="2" stroke-miterlimit="10"/>
<path d="M276.88 192.828C276.88 191.997 276.196 191.316 275.36 191.316H268.52C267.684 191.316 267 191.997 267 192.828V194.34C267 195.172 267.684 195.852 268.52 195.852H275.36C276.196 195.852 276.88 195.172 276.88 194.34V192.828Z" stroke="#F7B500" stroke-width="2" stroke-miterlimit="10"/>
<path d="M286.001 178.465C286.001 177.633 285.317 176.953 284.481 176.953H282.961C282.125 176.953 281.441 177.633 281.441 178.465V185.268C281.441 186.1 282.125 186.78 282.961 186.78H284.481C285.317 186.78 286.001 186.1 286.001 185.268V178.465Z" stroke="#F7B500" stroke-width="2" stroke-miterlimit="10"/>
<path d="M267.762 185.27V183.002C267.762 180.054 270.118 177.711 273.082 177.711H275.362" stroke="#F7B500" stroke-width="2" stroke-miterlimit="10"/>
<path d="M299.678 185.27V183.002C299.678 180.054 297.322 177.711 294.358 177.711H292.078" stroke="#F7B500" stroke-width="2" stroke-miterlimit="10"/>
<path d="M267.762 201.898V204.166C267.762 207.114 270.118 209.458 273.082 209.458H275.362" stroke="#F7B500" stroke-width="2" stroke-miterlimit="10"/>
<path d="M299.678 201.898V204.166C299.678 207.114 297.322 209.458 294.358 209.458H292.078" stroke="#F7B500" stroke-width="2" stroke-miterlimit="10"/>
<path d="M322 392.789C341.882 392.789 358 376.758 358 356.982C358 337.207 341.882 321.176 322 321.176C302.118 321.176 286 337.207 286 356.982C286 376.758 302.118 392.789 322 392.789Z" fill="#192538" stroke="#F7B500" stroke-width="2" stroke-miterlimit="10"/>
<path d="M317.641 375.364V373.852C317.641 373.852 319.921 372.189 319.921 370.072V369.316" stroke="#F7B500" stroke-width="2" stroke-miterlimit="10"/>
<path d="M311.56 359.488L308.52 361.907C307.456 362.89 307 363.419 307 364.931V370.676V375.363" stroke="#F7B500" stroke-width="2" stroke-miterlimit="10"/>
<path d="M326.76 339.078V340.59C326.76 340.59 324.48 342.253 324.48 344.37V345.126" stroke="#F7B500" stroke-width="2" stroke-miterlimit="10"/>
<path d="M332.84 354.952L335.88 352.533C336.944 351.551 337.4 351.022 337.4 349.51V343.765V339.078" stroke="#F7B500" stroke-width="2" stroke-miterlimit="10"/>
<path d="M311.559 366.291V348.149L314.599 345.125H328.279" stroke="#F7B500" stroke-width="2" stroke-miterlimit="10"/>
<path d="M332.841 348.148V369.314H316.121" stroke="#F7B500" stroke-width="2" stroke-miterlimit="10"/>
<path d="M316.121 353.441H323.721" stroke="#F7B500" stroke-width="2" stroke-miterlimit="10"/>
<path d="M316.121 356.465H328.281" stroke="#F7B500" stroke-width="2" stroke-miterlimit="10"/>
<path d="M320.68 359.488H328.28" stroke="#F7B500" stroke-width="2" stroke-miterlimit="10"/>
<path d="M320.68 362.512H328.28" stroke="#F7B500" stroke-width="2" stroke-miterlimit="10"/>
<path d="M316.118 346.637V349.66H313.078" stroke="#F7B500" stroke-width="2" stroke-miterlimit="10"/>
<path d="M309.812 367.804C309.812 367.804 314.752 363.117 316.12 361.756C317.488 360.396 319.388 363.495 317.792 365.536C316.956 366.367 316.12 367.048 316.12 367.048C316.12 367.35 316.12 368.257 316.12 368.56C316.12 371.508 313.384 372.339 312.928 372.339" stroke="#F7B500" stroke-width="2" stroke-miterlimit="10"/>
<path d="M334.587 346.637C334.587 346.637 329.647 351.324 328.279 352.684C326.911 354.045 325.011 350.946 326.607 348.905C327.443 348.073 328.279 347.393 328.279 347.393C328.279 347.091 328.279 346.184 328.279 345.881C328.279 342.933 331.015 342.102 331.471 342.102" stroke="#F7B500" stroke-width="2" stroke-miterlimit="10"/>
<path d="M55.05 318.55L50.175 336H46.05L42.775 323.575L39.35 336L35.25 336.025L30.55 318.55H34.3L37.375 332.1L40.925 318.55H44.825L48.175 332.025L51.275 318.55H55.05ZM65.1354 321.95C66.1854 321.95 67.1187 322.183 67.9354 322.65C68.752 323.1 69.3854 323.775 69.8354 324.675C70.302 325.558 70.5354 326.625 70.5354 327.875V336H67.0354V328.35C67.0354 327.25 66.7604 326.408 66.2104 325.825C65.6604 325.225 64.9104 324.925 63.9604 324.925C62.9937 324.925 62.227 325.225 61.6604 325.825C61.1104 326.408 60.8354 327.25 60.8354 328.35V336H57.3354V317.5H60.8354V323.875C61.2854 323.275 61.8854 322.808 62.6354 322.475C63.3854 322.125 64.2187 321.95 65.1354 321.95ZM72.9637 329.025C72.9637 327.625 73.2387 326.383 73.7887 325.3C74.3553 324.217 75.1137 323.383 76.0637 322.8C77.0303 322.217 78.1053 321.925 79.2887 321.925C80.322 321.925 81.222 322.133 81.9887 322.55C82.772 322.967 83.397 323.492 83.8637 324.125V322.15H87.3887V336H83.8637V333.975C83.4137 334.625 82.7887 335.167 81.9887 335.6C81.2053 336.017 80.297 336.225 79.2637 336.225C78.097 336.225 77.0303 335.925 76.0637 335.325C75.1137 334.725 74.3553 333.883 73.7887 332.8C73.2387 331.7 72.9637 330.442 72.9637 329.025ZM83.8637 329.075C83.8637 328.225 83.697 327.5 83.3637 326.9C83.0303 326.283 82.5803 325.817 82.0137 325.5C81.447 325.167 80.8387 325 80.1887 325C79.5387 325 78.9387 325.158 78.3887 325.475C77.8387 325.792 77.3887 326.258 77.0387 326.875C76.7053 327.475 76.5387 328.192 76.5387 329.025C76.5387 329.858 76.7053 330.592 77.0387 331.225C77.3887 331.842 77.8387 332.317 78.3887 332.65C78.9553 332.983 79.5553 333.15 80.1887 333.15C80.8387 333.15 81.447 332.992 82.0137 332.675C82.5803 332.342 83.0303 331.875 83.3637 331.275C83.697 330.658 83.8637 329.925 83.8637 329.075ZM94.882 325.025V331.725C94.882 332.192 94.9904 332.533 95.207 332.75C95.4404 332.95 95.8237 333.05 96.357 333.05H97.982V336H95.782C92.832 336 91.357 334.567 91.357 331.7V325.025H89.707V322.15H91.357V318.725H94.882V322.15H97.982V325.025H94.882ZM123.656 321.95C125.356 321.95 126.723 322.475 127.756 323.525C128.806 324.558 129.331 326.008 129.331 327.875V336H125.831V328.35C125.831 327.267 125.556 326.442 125.006 325.875C124.456 325.292 123.706 325 122.756 325C121.806 325 121.048 325.292 120.481 325.875C119.931 326.442 119.656 327.267 119.656 328.35V336H116.156V328.35C116.156 327.267 115.881 326.442 115.331 325.875C114.781 325.292 114.031 325 113.081 325C112.115 325 111.348 325.292 110.781 325.875C110.231 326.442 109.956 327.267 109.956 328.35V336H106.456V322.15H109.956V323.825C110.406 323.242 110.981 322.783 111.681 322.45C112.398 322.117 113.181 321.95 114.031 321.95C115.115 321.95 116.081 322.183 116.931 322.65C117.781 323.1 118.44 323.75 118.906 324.6C119.356 323.8 120.006 323.158 120.856 322.675C121.723 322.192 122.656 321.95 123.656 321.95ZM131.753 329.025C131.753 327.625 132.028 326.383 132.578 325.3C133.144 324.217 133.903 323.383 134.853 322.8C135.819 322.217 136.894 321.925 138.078 321.925C139.111 321.925 140.011 322.133 140.778 322.55C141.561 322.967 142.186 323.492 142.653 324.125V322.15H146.178V336H142.653V333.975C142.203 334.625 141.578 335.167 140.778 335.6C139.994 336.017 139.086 336.225 138.053 336.225C136.886 336.225 135.819 335.925 134.853 335.325C133.903 334.725 133.144 333.883 132.578 332.8C132.028 331.7 131.753 330.442 131.753 329.025ZM142.653 329.075C142.653 328.225 142.486 327.5 142.153 326.9C141.819 326.283 141.369 325.817 140.803 325.5C140.236 325.167 139.628 325 138.978 325C138.328 325 137.728 325.158 137.178 325.475C136.628 325.792 136.178 326.258 135.828 326.875C135.494 327.475 135.328 328.192 135.328 329.025C135.328 329.858 135.494 330.592 135.828 331.225C136.178 331.842 136.628 332.317 137.178 332.65C137.744 332.983 138.344 333.15 138.978 333.15C139.628 333.15 140.236 332.992 140.803 332.675C141.369 332.342 141.819 331.875 142.153 331.275C142.486 330.658 142.653 329.925 142.653 329.075ZM157.796 336L153.096 330.1V336H149.596V317.5H153.096V328.025L157.746 322.15H162.296L156.196 329.1L162.346 336H157.796ZM177.071 328.775C177.071 329.275 177.037 329.725 176.971 330.125H166.846C166.929 331.125 167.279 331.908 167.896 332.475C168.512 333.042 169.271 333.325 170.171 333.325C171.471 333.325 172.396 332.767 172.946 331.65H176.721C176.321 332.983 175.554 334.083 174.421 334.95C173.287 335.8 171.896 336.225 170.246 336.225C168.912 336.225 167.712 335.933 166.646 335.35C165.596 334.75 164.771 333.908 164.171 332.825C163.587 331.742 163.296 330.492 163.296 329.075C163.296 327.642 163.587 326.383 164.171 325.3C164.754 324.217 165.571 323.383 166.621 322.8C167.671 322.217 168.879 321.925 170.246 321.925C171.562 321.925 172.737 322.208 173.771 322.775C174.821 323.342 175.629 324.15 176.196 325.2C176.779 326.233 177.071 327.425 177.071 328.775ZM173.446 327.775C173.429 326.875 173.104 326.158 172.471 325.625C171.837 325.075 171.062 324.8 170.146 324.8C169.279 324.8 168.546 325.067 167.946 325.6C167.362 326.117 167.004 326.842 166.871 327.775H173.446ZM184.925 336.225C183.792 336.225 182.775 336.025 181.875 335.625C180.975 335.208 180.259 334.65 179.725 333.95C179.209 333.25 178.925 332.475 178.875 331.625H182.4C182.467 332.158 182.725 332.6 183.175 332.95C183.642 333.3 184.217 333.475 184.9 333.475C185.567 333.475 186.084 333.342 186.45 333.075C186.834 332.808 187.025 332.467 187.025 332.05C187.025 331.6 186.792 331.267 186.325 331.05C185.875 330.817 185.15 330.567 184.15 330.3C183.117 330.05 182.267 329.792 181.6 329.525C180.95 329.258 180.384 328.85 179.9 328.3C179.434 327.75 179.2 327.008 179.2 326.075C179.2 325.308 179.417 324.608 179.85 323.975C180.3 323.342 180.934 322.842 181.75 322.475C182.584 322.108 183.559 321.925 184.675 321.925C186.325 321.925 187.642 322.342 188.625 323.175C189.609 323.992 190.15 325.1 190.25 326.5H186.9C186.85 325.95 186.617 325.517 186.2 325.2C185.8 324.867 185.259 324.7 184.575 324.7C183.942 324.7 183.45 324.817 183.1 325.05C182.767 325.283 182.6 325.608 182.6 326.025C182.6 326.492 182.834 326.85 183.3 327.1C183.767 327.333 184.492 327.575 185.475 327.825C186.475 328.075 187.3 328.333 187.95 328.6C188.6 328.867 189.159 329.283 189.625 329.85C190.109 330.4 190.359 331.133 190.375 332.05C190.375 332.85 190.15 333.567 189.7 334.2C189.267 334.833 188.634 335.333 187.8 335.7C186.984 336.05 186.025 336.225 184.925 336.225ZM44.8 350.15V364H41.275V362.25C40.825 362.85 40.2333 363.325 39.5 363.675C38.7833 364.008 38 364.175 37.15 364.175C36.0667 364.175 35.1083 363.95 34.275 363.5C33.4417 363.033 32.7833 362.358 32.3 361.475C31.8333 360.575 31.6 359.508 31.6 358.275V350.15H35.1V357.775C35.1 358.875 35.375 359.725 35.925 360.325C36.475 360.908 37.225 361.2 38.175 361.2C39.1417 361.2 39.9 360.908 40.45 360.325C41 359.725 41.275 358.875 41.275 357.775V350.15H44.8ZM53.5533 364.225C52.42 364.225 51.4033 364.025 50.5033 363.625C49.6033 363.208 48.8867 362.65 48.3533 361.95C47.8367 361.25 47.5533 360.475 47.5033 359.625H51.0283C51.095 360.158 51.3533 360.6 51.8033 360.95C52.27 361.3 52.845 361.475 53.5283 361.475C54.195 361.475 54.7117 361.342 55.0783 361.075C55.4617 360.808 55.6533 360.467 55.6533 360.05C55.6533 359.6 55.42 359.267 54.9533 359.05C54.5033 358.817 53.7783 358.567 52.7783 358.3C51.745 358.05 50.895 357.792 50.2283 357.525C49.5783 357.258 49.0117 356.85 48.5283 356.3C48.0617 355.75 47.8283 355.008 47.8283 354.075C47.8283 353.308 48.045 352.608 48.4783 351.975C48.9283 351.342 49.5617 350.842 50.3783 350.475C51.2117 350.108 52.1867 349.925 53.3033 349.925C54.9533 349.925 56.27 350.342 57.2533 351.175C58.2367 351.992 58.7783 353.1 58.8783 354.5H55.5283C55.4783 353.95 55.245 353.517 54.8283 353.2C54.4283 352.867 53.8867 352.7 53.2033 352.7C52.57 352.7 52.0783 352.817 51.7283 353.05C51.395 353.283 51.2283 353.608 51.2283 354.025C51.2283 354.492 51.4617 354.85 51.9283 355.1C52.395 355.333 53.12 355.575 54.1033 355.825C55.1033 356.075 55.9283 356.333 56.5783 356.6C57.2283 356.867 57.7867 357.283 58.2533 357.85C58.7367 358.4 58.9867 359.133 59.0033 360.05C59.0033 360.85 58.7783 361.567 58.3283 362.2C57.895 362.833 57.2617 363.333 56.4283 363.7C55.6117 364.05 54.6533 364.225 53.5533 364.225ZM71.3334 352.175C71.7834 351.508 72.4001 350.967 73.1834 350.55C73.9834 350.133 74.8917 349.925 75.9084 349.925C77.0917 349.925 78.1584 350.217 79.1084 350.8C80.0751 351.383 80.8334 352.217 81.3834 353.3C81.9501 354.367 82.2334 355.608 82.2334 357.025C82.2334 358.442 81.9501 359.7 81.3834 360.8C80.8334 361.883 80.0751 362.725 79.1084 363.325C78.1584 363.925 77.0917 364.225 75.9084 364.225C74.8751 364.225 73.9667 364.025 73.1834 363.625C72.4167 363.208 71.8001 362.675 71.3334 362.025V364H67.8334V345.5H71.3334V352.175ZM78.6584 357.025C78.6584 356.192 78.4834 355.475 78.1334 354.875C77.8001 354.258 77.3501 353.792 76.7834 353.475C76.2334 353.158 75.6334 353 74.9834 353C74.3501 353 73.7501 353.167 73.1834 353.5C72.6334 353.817 72.1834 354.283 71.8334 354.9C71.5001 355.517 71.3334 356.242 71.3334 357.075C71.3334 357.908 71.5001 358.633 71.8334 359.25C72.1834 359.867 72.6334 360.342 73.1834 360.675C73.7501 360.992 74.3501 361.15 74.9834 361.15C75.6334 361.15 76.2334 360.983 76.7834 360.65C77.3501 360.317 77.8001 359.842 78.1334 359.225C78.4834 358.608 78.6584 357.875 78.6584 357.025ZM97.6518 356.775C97.6518 357.275 97.6184 357.725 97.5518 358.125H87.4268C87.5101 359.125 87.8601 359.908 88.4768 360.475C89.0934 361.042 89.8518 361.325 90.7518 361.325C92.0518 361.325 92.9768 360.767 93.5268 359.65H97.3018C96.9018 360.983 96.1351 362.083 95.0018 362.95C93.8684 363.8 92.4768 364.225 90.8268 364.225C89.4934 364.225 88.2934 363.933 87.2268 363.35C86.1768 362.75 85.3518 361.908 84.7518 360.825C84.1684 359.742 83.8768 358.492 83.8768 357.075C83.8768 355.642 84.1684 354.383 84.7518 353.3C85.3351 352.217 86.1518 351.383 87.2018 350.8C88.2518 350.217 89.4601 349.925 90.8268 349.925C92.1434 349.925 93.3184 350.208 94.3518 350.775C95.4018 351.342 96.2101 352.15 96.7768 353.2C97.3601 354.233 97.6518 355.425 97.6518 356.775ZM94.0268 355.775C94.0101 354.875 93.6851 354.158 93.0518 353.625C92.4184 353.075 91.6434 352.8 90.7268 352.8C89.8601 352.8 89.1268 353.067 88.5268 353.6C87.9434 354.117 87.5851 354.842 87.4518 355.775H94.0268ZM104.281 353.025V359.725C104.281 360.192 104.39 360.533 104.606 360.75C104.84 360.95 105.223 361.05 105.756 361.05H107.381V364H105.181C102.231 364 100.756 362.567 100.756 359.7V353.025H99.1064V350.15H100.756V346.725H104.281V350.15H107.381V353.025H104.281ZM113.974 353.025V359.725C113.974 360.192 114.082 360.533 114.299 360.75C114.532 360.95 114.915 361.05 115.449 361.05H117.074V364H114.874C111.924 364 110.449 362.567 110.449 359.7V353.025H108.799V350.15H110.449V346.725H113.974V350.15H117.074V353.025H113.974ZM132.466 356.775C132.466 357.275 132.433 357.725 132.366 358.125H122.241C122.325 359.125 122.675 359.908 123.291 360.475C123.908 361.042 124.666 361.325 125.566 361.325C126.866 361.325 127.791 360.767 128.341 359.65H132.116C131.716 360.983 130.95 362.083 129.816 362.95C128.683 363.8 127.291 364.225 125.641 364.225C124.308 364.225 123.108 363.933 122.041 363.35C120.991 362.75 120.166 361.908 119.566 360.825C118.983 359.742 118.691 358.492 118.691 357.075C118.691 355.642 118.983 354.383 119.566 353.3C120.15 352.217 120.966 351.383 122.016 350.8C123.066 350.217 124.275 349.925 125.641 349.925C126.958 349.925 128.133 350.208 129.166 350.775C130.216 351.342 131.025 352.15 131.591 353.2C132.175 354.233 132.466 355.425 132.466 356.775ZM128.841 355.775C128.825 354.875 128.5 354.158 127.866 353.625C127.233 353.075 126.458 352.8 125.541 352.8C124.675 352.8 123.941 353.067 123.341 353.6C122.758 354.117 122.4 354.842 122.266 355.775H128.841ZM138.521 352.3C138.971 351.567 139.554 350.992 140.271 350.575C141.004 350.158 141.838 349.95 142.771 349.95V353.625H141.846C140.746 353.625 139.913 353.883 139.346 354.4C138.796 354.917 138.521 355.817 138.521 357.1V364H135.021V350.15H138.521V352.3ZM35.8 381.025V387.725C35.8 388.192 35.9083 388.533 36.125 388.75C36.3583 388.95 36.7417 389.05 37.275 389.05H38.9V392H36.7C33.75 392 32.275 390.567 32.275 387.7V381.025H30.625V378.15H32.275V374.725H35.8V378.15H38.9V381.025H35.8ZM49.2174 377.95C50.2674 377.95 51.2007 378.183 52.0174 378.65C52.8341 379.1 53.4674 379.775 53.9174 380.675C54.384 381.558 54.6174 382.625 54.6174 383.875V392H51.1174V384.35C51.1174 383.25 50.8424 382.408 50.2924 381.825C49.7424 381.225 48.9924 380.925 48.0424 380.925C47.0757 380.925 46.309 381.225 45.7424 381.825C45.1924 382.408 44.9174 383.25 44.9174 384.35V392H41.4174V373.5H44.9174V379.875C45.3674 379.275 45.9674 378.808 46.7174 378.475C47.4674 378.125 48.3007 377.95 49.2174 377.95ZM57.0457 385.025C57.0457 383.625 57.3207 382.383 57.8707 381.3C58.4374 380.217 59.1957 379.383 60.1457 378.8C61.1124 378.217 62.1874 377.925 63.3707 377.925C64.404 377.925 65.304 378.133 66.0707 378.55C66.854 378.967 67.479 379.492 67.9457 380.125V378.15H71.4707V392H67.9457V389.975C67.4957 390.625 66.8707 391.167 66.0707 391.6C65.2874 392.017 64.379 392.225 63.3457 392.225C62.179 392.225 61.1124 391.925 60.1457 391.325C59.1957 390.725 58.4374 389.883 57.8707 388.8C57.3207 387.7 57.0457 386.442 57.0457 385.025ZM67.9457 385.075C67.9457 384.225 67.779 383.5 67.4457 382.9C67.1124 382.283 66.6624 381.817 66.0957 381.5C65.529 381.167 64.9207 381 64.2707 381C63.6207 381 63.0207 381.158 62.4707 381.475C61.9207 381.792 61.4707 382.258 61.1207 382.875C60.7874 383.475 60.6207 384.192 60.6207 385.025C60.6207 385.858 60.7874 386.592 61.1207 387.225C61.4707 387.842 61.9207 388.317 62.4707 388.65C63.0374 388.983 63.6374 389.15 64.2707 389.15C64.9207 389.15 65.529 388.992 66.0957 388.675C66.6624 388.342 67.1124 387.875 67.4457 387.275C67.779 386.658 67.9457 385.925 67.9457 385.075ZM82.5641 377.95C84.2141 377.95 85.5474 378.475 86.5641 379.525C87.5807 380.558 88.0891 382.008 88.0891 383.875V392H84.5891V384.35C84.5891 383.25 84.3141 382.408 83.7641 381.825C83.2141 381.225 82.4641 380.925 81.5141 380.925C80.5474 380.925 79.7807 381.225 79.2141 381.825C78.6641 382.408 78.3891 383.25 78.3891 384.35V392H74.8891V378.15H78.3891V379.875C78.8557 379.275 79.4474 378.808 80.1641 378.475C80.8974 378.125 81.6974 377.95 82.5641 377.95ZM103.524 392.225C102.191 392.225 100.991 391.933 99.9244 391.35C98.8577 390.75 98.0161 389.908 97.3994 388.825C96.7994 387.742 96.4994 386.492 96.4994 385.075C96.4994 383.658 96.8077 382.408 97.4244 381.325C98.0577 380.242 98.9161 379.408 99.9994 378.825C101.083 378.225 102.291 377.925 103.624 377.925C104.958 377.925 106.166 378.225 107.249 378.825C108.333 379.408 109.183 380.242 109.799 381.325C110.433 382.408 110.749 383.658 110.749 385.075C110.749 386.492 110.424 387.742 109.774 388.825C109.141 389.908 108.274 390.75 107.174 391.35C106.091 391.933 104.874 392.225 103.524 392.225ZM103.524 389.175C104.158 389.175 104.749 389.025 105.299 388.725C105.866 388.408 106.316 387.942 106.649 387.325C106.983 386.708 107.149 385.958 107.149 385.075C107.149 383.758 106.799 382.75 106.099 382.05C105.416 381.333 104.574 380.975 103.574 380.975C102.574 380.975 101.733 381.333 101.049 382.05C100.383 382.75 100.049 383.758 100.049 385.075C100.049 386.392 100.374 387.408 101.024 388.125C101.691 388.825 102.524 389.175 103.524 389.175ZM117.392 381.025V387.725C117.392 388.192 117.5 388.533 117.717 388.75C117.95 388.95 118.333 389.05 118.867 389.05H120.492V392H118.292C115.342 392 113.867 390.567 113.867 387.7V381.025H112.217V378.15H113.867V374.725H117.392V378.15H120.492V381.025H117.392ZM130.809 377.95C131.859 377.95 132.793 378.183 133.609 378.65C134.426 379.1 135.059 379.775 135.509 380.675C135.976 381.558 136.209 382.625 136.209 383.875V392H132.709V384.35C132.709 383.25 132.434 382.408 131.884 381.825C131.334 381.225 130.584 380.925 129.634 380.925C128.668 380.925 127.901 381.225 127.334 381.825C126.784 382.408 126.509 383.25 126.509 384.35V392H123.009V373.5H126.509V379.875C126.959 379.275 127.559 378.808 128.309 378.475C129.059 378.125 129.893 377.95 130.809 377.95ZM152.413 384.775C152.413 385.275 152.379 385.725 152.313 386.125H142.188C142.271 387.125 142.621 387.908 143.238 388.475C143.854 389.042 144.613 389.325 145.513 389.325C146.813 389.325 147.738 388.767 148.288 387.65H152.063C151.663 388.983 150.896 390.083 149.763 390.95C148.629 391.8 147.238 392.225 145.588 392.225C144.254 392.225 143.054 391.933 141.988 391.35C140.938 390.75 140.113 389.908 139.513 388.825C138.929 387.742 138.637 386.492 138.637 385.075C138.637 383.642 138.929 382.383 139.513 381.3C140.096 380.217 140.913 379.383 141.963 378.8C143.013 378.217 144.221 377.925 145.588 377.925C146.904 377.925 148.079 378.208 149.113 378.775C150.163 379.342 150.971 380.15 151.538 381.2C152.121 382.233 152.413 383.425 152.413 384.775ZM148.788 383.775C148.771 382.875 148.446 382.158 147.813 381.625C147.179 381.075 146.404 380.8 145.488 380.8C144.621 380.8 143.888 381.067 143.288 381.6C142.704 382.117 142.346 382.842 142.213 383.775H148.788ZM158.467 380.3C158.917 379.567 159.501 378.992 160.217 378.575C160.951 378.158 161.784 377.95 162.717 377.95V381.625H161.792C160.692 381.625 159.859 381.883 159.292 382.4C158.742 382.917 158.467 383.817 158.467 385.1V392H154.967V378.15H158.467V380.3ZM170.375 392.225C169.241 392.225 168.225 392.025 167.325 391.625C166.425 391.208 165.708 390.65 165.175 389.95C164.658 389.25 164.375 388.475 164.325 387.625H167.85C167.916 388.158 168.175 388.6 168.625 388.95C169.091 389.3 169.666 389.475 170.35 389.475C171.016 389.475 171.533 389.342 171.9 389.075C172.283 388.808 172.475 388.467 172.475 388.05C172.475 387.6 172.241 387.267 171.775 387.05C171.325 386.817 170.6 386.567 169.6 386.3C168.566 386.05 167.716 385.792 167.05 385.525C166.4 385.258 165.833 384.85 165.35 384.3C164.883 383.75 164.65 383.008 164.65 382.075C164.65 381.308 164.866 380.608 165.3 379.975C165.75 379.342 166.383 378.842 167.2 378.475C168.033 378.108 169.008 377.925 170.125 377.925C171.775 377.925 173.091 378.342 174.075 379.175C175.058 379.992 175.6 381.1 175.7 382.5H172.35C172.3 381.95 172.066 381.517 171.65 381.2C171.25 380.867 170.708 380.7 170.025 380.7C169.391 380.7 168.9 380.817 168.55 381.05C168.216 381.283 168.05 381.608 168.05 382.025C168.05 382.492 168.283 382.85 168.75 383.1C169.216 383.333 169.941 383.575 170.925 383.825C171.925 384.075 172.75 384.333 173.4 384.6C174.05 384.867 174.608 385.283 175.075 385.85C175.558 386.4 175.808 387.133 175.825 388.05C175.825 388.85 175.6 389.567 175.15 390.2C174.716 390.833 174.083 391.333 173.25 391.7C172.433 392.05 171.475 392.225 170.375 392.225ZM183.573 373.95C185.306 373.95 186.698 374.425 187.748 375.375C188.814 376.308 189.348 377.6 189.348 379.25C189.348 380.883 188.823 382.133 187.773 383C186.723 383.85 185.331 384.275 183.598 384.275L183.498 386.2H180.423L180.298 381.95H181.423C182.873 381.95 183.989 381.758 184.773 381.375C185.556 380.992 185.948 380.292 185.948 379.275C185.948 378.542 185.731 377.958 185.298 377.525C184.881 377.092 184.306 376.875 183.573 376.875C182.806 376.875 182.206 377.083 181.773 377.5C181.356 377.917 181.148 378.492 181.148 379.225H177.848C177.831 378.208 178.048 377.3 178.498 376.5C178.948 375.7 179.606 375.075 180.473 374.625C181.356 374.175 182.389 373.95 183.573 373.95ZM181.948 392.175C181.314 392.175 180.789 391.983 180.373 391.6C179.973 391.2 179.773 390.708 179.773 390.125C179.773 389.542 179.973 389.058 180.373 388.675C180.789 388.275 181.314 388.075 181.948 388.075C182.564 388.075 183.073 388.275 183.473 388.675C183.873 389.058 184.073 389.542 184.073 390.125C184.073 390.708 183.873 391.2 183.473 391.6C183.073 391.983 182.564 392.175 181.948 392.175Z" fill="white"/>
<path d="M344.825 187.175C343.208 187.175 341.733 186.8 340.4 186.05C339.067 185.283 338.008 184.225 337.225 182.875C336.458 181.508 336.075 179.975 336.075 178.275C336.075 176.575 336.458 175.05 337.225 173.7C338.008 172.333 339.067 171.275 340.4 170.525C341.733 169.758 343.208 169.375 344.825 169.375C346.458 169.375 347.942 169.758 349.275 170.525C350.608 171.275 351.658 172.325 352.425 173.675C353.192 175.025 353.575 176.558 353.575 178.275C353.575 179.992 353.192 181.525 352.425 182.875C351.658 184.225 350.608 185.283 349.275 186.05C347.942 186.8 346.458 187.175 344.825 187.175ZM344.825 185.2C346.042 185.2 347.133 184.917 348.1 184.35C349.083 183.783 349.85 182.975 350.4 181.925C350.967 180.875 351.25 179.658 351.25 178.275C351.25 176.875 350.967 175.658 350.4 174.625C349.85 173.575 349.092 172.767 348.125 172.2C347.158 171.633 346.058 171.35 344.825 171.35C343.592 171.35 342.492 171.633 341.525 172.2C340.558 172.767 339.792 173.575 339.225 174.625C338.675 175.658 338.4 176.875 338.4 178.275C338.4 179.658 338.675 180.875 339.225 181.925C339.792 182.975 340.558 183.783 341.525 184.35C342.508 184.917 343.608 185.2 344.825 185.2ZM368.728 173.3V187H366.453V184.975C366.02 185.675 365.412 186.225 364.628 186.625C363.862 187.008 363.012 187.2 362.078 187.2C361.012 187.2 360.053 186.983 359.203 186.55C358.353 186.1 357.678 185.433 357.178 184.55C356.695 183.667 356.453 182.592 356.453 181.325V173.3H358.703V181.025C358.703 182.375 359.045 183.417 359.728 184.15C360.412 184.867 361.345 185.225 362.528 185.225C363.745 185.225 364.703 184.85 365.403 184.1C366.103 183.35 366.453 182.258 366.453 180.825V173.3H368.728ZM375.345 175.175V183.25C375.345 183.917 375.486 184.392 375.77 184.675C376.053 184.942 376.545 185.075 377.245 185.075H378.92V187H376.87C375.603 187 374.653 186.708 374.02 186.125C373.386 185.542 373.07 184.583 373.07 183.25V175.175H371.295V173.3H373.07V169.85H375.345V173.3H378.92V175.175H375.345ZM386.526 187.225C385.476 187.225 384.534 187.05 383.701 186.7C382.868 186.333 382.209 185.833 381.726 185.2C381.243 184.55 380.976 183.808 380.926 182.975H383.276C383.343 183.658 383.659 184.217 384.226 184.65C384.809 185.083 385.568 185.3 386.501 185.3C387.368 185.3 388.051 185.108 388.551 184.725C389.051 184.342 389.301 183.858 389.301 183.275C389.301 182.675 389.034 182.233 388.501 181.95C387.968 181.65 387.143 181.358 386.026 181.075C385.009 180.808 384.176 180.542 383.526 180.275C382.893 179.992 382.343 179.583 381.876 179.05C381.426 178.5 381.201 177.783 381.201 176.9C381.201 176.2 381.409 175.558 381.826 174.975C382.243 174.392 382.834 173.933 383.601 173.6C384.368 173.25 385.243 173.075 386.226 173.075C387.743 173.075 388.968 173.458 389.901 174.225C390.834 174.992 391.334 176.042 391.401 177.375H389.126C389.076 176.658 388.784 176.083 388.251 175.65C387.734 175.217 387.034 175 386.151 175C385.334 175 384.684 175.175 384.201 175.525C383.718 175.875 383.476 176.333 383.476 176.9C383.476 177.35 383.618 177.725 383.901 178.025C384.201 178.308 384.568 178.542 385.001 178.725C385.451 178.892 386.068 179.083 386.851 179.3C387.834 179.567 388.634 179.833 389.251 180.1C389.868 180.35 390.393 180.733 390.826 181.25C391.276 181.767 391.509 182.442 391.526 183.275C391.526 184.025 391.318 184.7 390.901 185.3C390.484 185.9 389.893 186.375 389.126 186.725C388.376 187.058 387.509 187.225 386.526 187.225ZM397.513 175.175V183.25C397.513 183.917 397.654 184.392 397.938 184.675C398.221 184.942 398.713 185.075 399.412 185.075H401.088V187H399.038C397.771 187 396.821 186.708 396.188 186.125C395.554 185.542 395.238 184.583 395.238 183.25V175.175H393.463V173.3H395.238V169.85H397.513V173.3H401.088V175.175H397.513ZM402.994 180.1C402.994 178.7 403.277 177.475 403.844 176.425C404.411 175.358 405.186 174.533 406.169 173.95C407.169 173.367 408.277 173.075 409.494 173.075C410.694 173.075 411.736 173.333 412.619 173.85C413.502 174.367 414.161 175.017 414.594 175.8V173.3H416.894V187H414.594V184.45C414.144 185.25 413.469 185.917 412.569 186.45C411.686 186.967 410.652 187.225 409.469 187.225C408.252 187.225 407.152 186.925 406.169 186.325C405.186 185.725 404.411 184.883 403.844 183.8C403.277 182.717 402.994 181.483 402.994 180.1ZM414.594 180.125C414.594 179.092 414.386 178.192 413.969 177.425C413.552 176.658 412.986 176.075 412.269 175.675C411.569 175.258 410.794 175.05 409.944 175.05C409.094 175.05 408.319 175.25 407.619 175.65C406.919 176.05 406.361 176.633 405.944 177.4C405.527 178.167 405.319 179.067 405.319 180.1C405.319 181.15 405.527 182.067 405.944 182.85C406.361 183.617 406.919 184.208 407.619 184.625C408.319 185.025 409.094 185.225 409.944 185.225C410.794 185.225 411.569 185.025 412.269 184.625C412.986 184.208 413.552 183.617 413.969 182.85C414.386 182.067 414.594 181.158 414.594 180.125ZM427.413 173.05C429.08 173.05 430.43 173.558 431.463 174.575C432.497 175.575 433.013 177.025 433.013 178.925V187H430.763V179.25C430.763 177.883 430.422 176.842 429.738 176.125C429.055 175.392 428.122 175.025 426.938 175.025C425.738 175.025 424.78 175.4 424.063 176.15C423.363 176.9 423.013 177.992 423.013 179.425V187H420.738V173.3H423.013V175.25C423.463 174.55 424.072 174.008 424.838 173.625C425.622 173.242 426.48 173.05 427.413 173.05ZM435.88 180.1C435.88 178.7 436.163 177.475 436.73 176.425C437.296 175.358 438.071 174.533 439.055 173.95C440.055 173.367 441.171 173.075 442.405 173.075C443.471 173.075 444.463 173.325 445.38 173.825C446.296 174.308 446.996 174.95 447.48 175.75V168.5H449.78V187H447.48V184.425C447.03 185.242 446.363 185.917 445.48 186.45C444.596 186.967 443.563 187.225 442.38 187.225C441.163 187.225 440.055 186.925 439.055 186.325C438.071 185.725 437.296 184.883 436.73 183.8C436.163 182.717 435.88 181.483 435.88 180.1ZM447.48 180.125C447.48 179.092 447.271 178.192 446.855 177.425C446.438 176.658 445.871 176.075 445.155 175.675C444.455 175.258 443.68 175.05 442.83 175.05C441.98 175.05 441.205 175.25 440.505 175.65C439.805 176.05 439.246 176.633 438.83 177.4C438.413 178.167 438.205 179.067 438.205 180.1C438.205 181.15 438.413 182.067 438.83 182.85C439.246 183.617 439.805 184.208 440.505 184.625C441.205 185.025 441.98 185.225 442.83 185.225C443.68 185.225 444.455 185.025 445.155 184.625C445.871 184.208 446.438 183.617 446.855 182.85C447.271 182.067 447.48 181.158 447.48 180.125ZM454.799 171.075C454.366 171.075 453.999 170.925 453.699 170.625C453.399 170.325 453.249 169.958 453.249 169.525C453.249 169.092 453.399 168.725 453.699 168.425C453.999 168.125 454.366 167.975 454.799 167.975C455.216 167.975 455.566 168.125 455.849 168.425C456.149 168.725 456.299 169.092 456.299 169.525C456.299 169.958 456.149 170.325 455.849 170.625C455.566 170.925 455.216 171.075 454.799 171.075ZM455.899 173.3V187H453.624V173.3H455.899ZM466.452 173.05C468.118 173.05 469.468 173.558 470.502 174.575C471.535 175.575 472.052 177.025 472.052 178.925V187H469.802V179.25C469.802 177.883 469.46 176.842 468.777 176.125C468.093 175.392 467.16 175.025 465.977 175.025C464.777 175.025 463.818 175.4 463.102 176.15C462.402 176.9 462.052 177.992 462.052 179.425V187H459.777V173.3H462.052V175.25C462.502 174.55 463.11 174.008 463.877 173.625C464.66 173.242 465.518 173.05 466.452 173.05ZM481.418 173.075C482.601 173.075 483.634 173.333 484.518 173.85C485.418 174.367 486.084 175.017 486.518 175.8V173.3H488.818V187.3C488.818 188.55 488.551 189.658 488.018 190.625C487.484 191.608 486.718 192.375 485.718 192.925C484.734 193.475 483.584 193.75 482.268 193.75C480.468 193.75 478.968 193.325 477.768 192.475C476.568 191.625 475.859 190.467 475.643 189H477.893C478.143 189.833 478.659 190.5 479.443 191C480.226 191.517 481.168 191.775 482.268 191.775C483.518 191.775 484.534 191.383 485.318 190.6C486.118 189.817 486.518 188.717 486.518 187.3V184.425C486.068 185.225 485.401 185.892 484.518 186.425C483.634 186.958 482.601 187.225 481.418 187.225C480.201 187.225 479.093 186.925 478.093 186.325C477.109 185.725 476.334 184.883 475.768 183.8C475.201 182.717 474.918 181.483 474.918 180.1C474.918 178.7 475.201 177.475 475.768 176.425C476.334 175.358 477.109 174.533 478.093 173.95C479.093 173.367 480.201 173.075 481.418 173.075ZM486.518 180.125C486.518 179.092 486.309 178.192 485.893 177.425C485.476 176.658 484.909 176.075 484.193 175.675C483.493 175.258 482.718 175.05 481.868 175.05C481.018 175.05 480.243 175.25 479.543 175.65C478.843 176.05 478.284 176.633 477.868 177.4C477.451 178.167 477.243 179.067 477.243 180.1C477.243 181.15 477.451 182.067 477.868 182.85C478.284 183.617 478.843 184.208 479.543 184.625C480.243 185.025 481.018 185.225 481.868 185.225C482.718 185.225 483.493 185.025 484.193 184.625C484.909 184.208 485.476 183.617 485.893 182.85C486.309 182.067 486.518 181.158 486.518 180.125ZM341.775 215.225C340.725 215.225 339.783 215.05 338.95 214.7C338.117 214.333 337.458 213.833 336.975 213.2C336.492 212.55 336.225 211.808 336.175 210.975H338.525C338.592 211.658 338.908 212.217 339.475 212.65C340.058 213.083 340.817 213.3 341.75 213.3C342.617 213.3 343.3 213.108 343.8 212.725C344.3 212.342 344.55 211.858 344.55 211.275C344.55 210.675 344.283 210.233 343.75 209.95C343.217 209.65 342.392 209.358 341.275 209.075C340.258 208.808 339.425 208.542 338.775 208.275C338.142 207.992 337.592 207.583 337.125 207.05C336.675 206.5 336.45 205.783 336.45 204.9C336.45 204.2 336.658 203.558 337.075 202.975C337.492 202.392 338.083 201.933 338.85 201.6C339.617 201.25 340.492 201.075 341.475 201.075C342.992 201.075 344.217 201.458 345.15 202.225C346.083 202.992 346.583 204.042 346.65 205.375H344.375C344.325 204.658 344.033 204.083 343.5 203.65C342.983 203.217 342.283 203 341.4 203C340.583 203 339.933 203.175 339.45 203.525C338.967 203.875 338.725 204.333 338.725 204.9C338.725 205.35 338.867 205.725 339.15 206.025C339.45 206.308 339.817 206.542 340.25 206.725C340.7 206.892 341.317 207.083 342.1 207.3C343.083 207.567 343.883 207.833 344.5 208.1C345.117 208.35 345.642 208.733 346.075 209.25C346.525 209.767 346.758 210.442 346.775 211.275C346.775 212.025 346.567 212.7 346.15 213.3C345.733 213.9 345.142 214.375 344.375 214.725C343.625 215.058 342.758 215.225 341.775 215.225ZM362.137 201.3V215H359.862V212.975C359.428 213.675 358.82 214.225 358.037 214.625C357.27 215.008 356.42 215.2 355.487 215.2C354.42 215.2 353.462 214.983 352.612 214.55C351.762 214.1 351.087 213.433 350.587 212.55C350.103 211.667 349.862 210.592 349.862 209.325V201.3H352.112V209.025C352.112 210.375 352.453 211.417 353.137 212.15C353.82 212.867 354.753 213.225 355.937 213.225C357.153 213.225 358.112 212.85 358.812 212.1C359.512 211.35 359.862 210.258 359.862 208.825V201.3H362.137ZM368.253 203.825C368.703 203.042 369.369 202.392 370.253 201.875C371.153 201.342 372.194 201.075 373.378 201.075C374.594 201.075 375.694 201.367 376.678 201.95C377.678 202.533 378.461 203.358 379.028 204.425C379.594 205.475 379.878 206.7 379.878 208.1C379.878 209.483 379.594 210.717 379.028 211.8C378.461 212.883 377.678 213.725 376.678 214.325C375.694 214.925 374.594 215.225 373.378 215.225C372.211 215.225 371.178 214.967 370.278 214.45C369.394 213.917 368.719 213.258 368.253 212.475V221.5H365.978V201.3H368.253V203.825ZM377.553 208.1C377.553 207.067 377.344 206.167 376.928 205.4C376.511 204.633 375.944 204.05 375.228 203.65C374.528 203.25 373.753 203.05 372.903 203.05C372.069 203.05 371.294 203.258 370.578 203.675C369.878 204.075 369.311 204.667 368.878 205.45C368.461 206.217 368.253 207.108 368.253 208.125C368.253 209.158 368.461 210.067 368.878 210.85C369.311 211.617 369.878 212.208 370.578 212.625C371.294 213.025 372.069 213.225 372.903 213.225C373.753 213.225 374.528 213.025 375.228 212.625C375.944 212.208 376.511 211.617 376.928 210.85C377.344 210.067 377.553 209.15 377.553 208.1ZM385.147 203.825C385.597 203.042 386.264 202.392 387.147 201.875C388.047 201.342 389.089 201.075 390.272 201.075C391.489 201.075 392.589 201.367 393.572 201.95C394.572 202.533 395.356 203.358 395.922 204.425C396.489 205.475 396.772 206.7 396.772 208.1C396.772 209.483 396.489 210.717 395.922 211.8C395.356 212.883 394.572 213.725 393.572 214.325C392.589 214.925 391.489 215.225 390.272 215.225C389.106 215.225 388.072 214.967 387.172 214.45C386.289 213.917 385.614 213.258 385.147 212.475V221.5H382.872V201.3H385.147V203.825ZM394.447 208.1C394.447 207.067 394.239 206.167 393.822 205.4C393.406 204.633 392.839 204.05 392.122 203.65C391.422 203.25 390.647 203.05 389.797 203.05C388.964 203.05 388.189 203.258 387.472 203.675C386.772 204.075 386.206 204.667 385.772 205.45C385.356 206.217 385.147 207.108 385.147 208.125C385.147 209.158 385.356 210.067 385.772 210.85C386.206 211.617 386.772 212.208 387.472 212.625C388.189 213.025 388.964 213.225 389.797 213.225C390.647 213.225 391.422 213.025 392.122 212.625C392.839 212.208 393.406 211.617 393.822 210.85C394.239 210.067 394.447 209.15 394.447 208.1ZM405.742 215.225C404.458 215.225 403.292 214.933 402.242 214.35C401.208 213.767 400.392 212.942 399.792 211.875C399.208 210.792 398.917 209.542 398.917 208.125C398.917 206.725 399.217 205.492 399.817 204.425C400.433 203.342 401.267 202.517 402.317 201.95C403.367 201.367 404.542 201.075 405.842 201.075C407.142 201.075 408.317 201.367 409.367 201.95C410.417 202.517 411.242 203.333 411.842 204.4C412.458 205.467 412.767 206.708 412.767 208.125C412.767 209.542 412.45 210.792 411.817 211.875C411.2 212.942 410.358 213.767 409.292 214.35C408.225 214.933 407.042 215.225 405.742 215.225ZM405.742 213.225C406.558 213.225 407.325 213.033 408.042 212.65C408.758 212.267 409.333 211.692 409.767 210.925C410.217 210.158 410.442 209.225 410.442 208.125C410.442 207.025 410.225 206.092 409.792 205.325C409.358 204.558 408.792 203.992 408.092 203.625C407.392 203.242 406.633 203.05 405.817 203.05C404.983 203.05 404.217 203.242 403.517 203.625C402.833 203.992 402.283 204.558 401.867 205.325C401.45 206.092 401.242 207.025 401.242 208.125C401.242 209.242 401.442 210.183 401.842 210.95C402.258 211.717 402.808 212.292 403.492 212.675C404.175 213.042 404.925 213.225 405.742 213.225ZM418.033 203.525C418.433 202.742 419 202.133 419.733 201.7C420.483 201.267 421.391 201.05 422.458 201.05V203.4H421.858C419.308 203.4 418.033 204.783 418.033 207.55V215H415.758V201.3H418.033V203.525ZM427.859 203.175V211.25C427.859 211.917 428.001 212.392 428.284 212.675C428.568 212.942 429.059 213.075 429.759 213.075H431.434V215H429.384C428.118 215 427.168 214.708 426.534 214.125C425.901 213.542 425.584 212.583 425.584 211.25V203.175H423.809V201.3H425.584V197.85H427.859V201.3H431.434V203.175H427.859Z" fill="white"/>
<path d="M383.575 339.675C383.575 341.125 383.075 342.333 382.075 343.3C381.092 344.25 379.583 344.725 377.55 344.725H374.2V352H371.925V334.575H377.55C379.517 334.575 381.008 335.05 382.025 336C383.058 336.95 383.575 338.175 383.575 339.675ZM377.55 342.85C378.817 342.85 379.75 342.575 380.35 342.025C380.95 341.475 381.25 340.692 381.25 339.675C381.25 337.525 380.017 336.45 377.55 336.45H374.2V342.85H377.55ZM398.903 344.625C398.903 345.058 398.878 345.517 398.828 346H387.878C387.961 347.35 388.419 348.408 389.253 349.175C390.103 349.925 391.128 350.3 392.328 350.3C393.311 350.3 394.128 350.075 394.778 349.625C395.444 349.158 395.911 348.542 396.178 347.775H398.628C398.261 349.092 397.528 350.167 396.428 351C395.328 351.817 393.961 352.225 392.328 352.225C391.028 352.225 389.861 351.933 388.828 351.35C387.811 350.767 387.011 349.942 386.428 348.875C385.844 347.792 385.553 346.542 385.553 345.125C385.553 343.708 385.836 342.467 386.403 341.4C386.969 340.333 387.761 339.517 388.778 338.95C389.811 338.367 390.994 338.075 392.328 338.075C393.628 338.075 394.778 338.358 395.778 338.925C396.778 339.492 397.544 340.275 398.078 341.275C398.628 342.258 398.903 343.375 398.903 344.625ZM396.553 344.15C396.553 343.283 396.361 342.542 395.978 341.925C395.594 341.292 395.069 340.817 394.403 340.5C393.753 340.167 393.028 340 392.228 340C391.078 340 390.094 340.367 389.278 341.1C388.478 341.833 388.019 342.85 387.903 344.15H396.553ZM404.18 340.525C404.58 339.742 405.147 339.133 405.88 338.7C406.63 338.267 407.539 338.05 408.605 338.05V340.4H408.005C405.455 340.4 404.18 341.783 404.18 344.55V352H401.905V338.3H404.18V340.525ZM416.807 340.175H413.932V352H411.657V340.175H409.882V338.3H411.657V337.325C411.657 335.792 412.048 334.675 412.832 333.975C413.632 333.258 414.907 332.9 416.657 332.9V334.8C415.657 334.8 414.948 335 414.532 335.4C414.132 335.783 413.932 336.425 413.932 337.325V338.3H416.807V340.175ZM431.959 344.625C431.959 345.058 431.934 345.517 431.884 346H420.934C421.018 347.35 421.476 348.408 422.309 349.175C423.159 349.925 424.184 350.3 425.384 350.3C426.368 350.3 427.184 350.075 427.834 349.625C428.501 349.158 428.968 348.542 429.234 347.775H431.684C431.318 349.092 430.584 350.167 429.484 351C428.384 351.817 427.018 352.225 425.384 352.225C424.084 352.225 422.918 351.933 421.884 351.35C420.868 350.767 420.068 349.942 419.484 348.875C418.901 347.792 418.609 346.542 418.609 345.125C418.609 343.708 418.893 342.467 419.459 341.4C420.026 340.333 420.818 339.517 421.834 338.95C422.868 338.367 424.051 338.075 425.384 338.075C426.684 338.075 427.834 338.358 428.834 338.925C429.834 339.492 430.601 340.275 431.134 341.275C431.684 342.258 431.959 343.375 431.959 344.625ZM429.609 344.15C429.609 343.283 429.418 342.542 429.034 341.925C428.651 341.292 428.126 340.817 427.459 340.5C426.809 340.167 426.084 340 425.284 340C424.134 340 423.151 340.367 422.334 341.1C421.534 341.833 421.076 342.85 420.959 344.15H429.609ZM434.112 345.125C434.112 343.708 434.395 342.475 434.962 341.425C435.529 340.358 436.312 339.533 437.312 338.95C438.329 338.367 439.487 338.075 440.787 338.075C442.47 338.075 443.854 338.483 444.937 339.3C446.037 340.117 446.762 341.25 447.112 342.7H444.662C444.429 341.867 443.97 341.208 443.287 340.725C442.62 340.242 441.787 340 440.787 340C439.487 340 438.437 340.45 437.637 341.35C436.837 342.233 436.437 343.492 436.437 345.125C436.437 346.775 436.837 348.05 437.637 348.95C438.437 349.85 439.487 350.3 440.787 350.3C441.787 350.3 442.62 350.067 443.287 349.6C443.954 349.133 444.412 348.467 444.662 347.6H447.112C446.745 349 446.012 350.125 444.912 350.975C443.812 351.808 442.437 352.225 440.787 352.225C439.487 352.225 438.329 351.933 437.312 351.35C436.312 350.767 435.529 349.942 434.962 348.875C434.395 347.808 434.112 346.558 434.112 345.125ZM452.923 340.175V348.25C452.923 348.917 453.064 349.392 453.348 349.675C453.631 349.942 454.123 350.075 454.823 350.075H456.498V352H454.448C453.181 352 452.231 351.708 451.598 351.125C450.964 350.542 450.648 349.583 450.648 348.25V340.175H448.873V338.3H450.648V334.85H452.923V338.3H456.498V340.175H452.923ZM377.35 362.575C379.25 362.575 380.892 362.933 382.275 363.65C383.675 364.35 384.742 365.358 385.475 366.675C386.225 367.992 386.6 369.542 386.6 371.325C386.6 373.108 386.225 374.658 385.475 375.975C384.742 377.275 383.675 378.275 382.275 378.975C380.892 379.658 379.25 380 377.35 380H371.925V362.575H377.35ZM377.35 378.125C379.6 378.125 381.317 377.533 382.5 376.35C383.683 375.15 384.275 373.475 384.275 371.325C384.275 369.158 383.675 367.467 382.475 366.25C381.292 365.033 379.583 364.425 377.35 364.425H374.2V378.125H377.35ZM395.576 380.225C394.292 380.225 393.126 379.933 392.076 379.35C391.042 378.767 390.226 377.942 389.626 376.875C389.042 375.792 388.751 374.542 388.751 373.125C388.751 371.725 389.051 370.492 389.651 369.425C390.267 368.342 391.101 367.517 392.151 366.95C393.201 366.367 394.376 366.075 395.676 366.075C396.976 366.075 398.151 366.367 399.201 366.95C400.251 367.517 401.076 368.333 401.676 369.4C402.292 370.467 402.601 371.708 402.601 373.125C402.601 374.542 402.284 375.792 401.651 376.875C401.034 377.942 400.192 378.767 399.126 379.35C398.059 379.933 396.876 380.225 395.576 380.225ZM395.576 378.225C396.392 378.225 397.159 378.033 397.876 377.65C398.592 377.267 399.167 376.692 399.601 375.925C400.051 375.158 400.276 374.225 400.276 373.125C400.276 372.025 400.059 371.092 399.626 370.325C399.192 369.558 398.626 368.992 397.926 368.625C397.226 368.242 396.467 368.05 395.651 368.05C394.817 368.05 394.051 368.242 393.351 368.625C392.667 368.992 392.117 369.558 391.701 370.325C391.284 371.092 391.076 372.025 391.076 373.125C391.076 374.242 391.276 375.183 391.676 375.95C392.092 376.717 392.642 377.292 393.326 377.675C394.009 378.042 394.759 378.225 395.576 378.225ZM404.742 373.125C404.742 371.708 405.025 370.475 405.592 369.425C406.159 368.358 406.942 367.533 407.942 366.95C408.959 366.367 410.117 366.075 411.417 366.075C413.1 366.075 414.484 366.483 415.567 367.3C416.667 368.117 417.392 369.25 417.742 370.7H415.292C415.059 369.867 414.6 369.208 413.917 368.725C413.25 368.242 412.417 368 411.417 368C410.117 368 409.067 368.45 408.267 369.35C407.467 370.233 407.067 371.492 407.067 373.125C407.067 374.775 407.467 376.05 408.267 376.95C409.067 377.85 410.117 378.3 411.417 378.3C412.417 378.3 413.25 378.067 413.917 377.6C414.584 377.133 415.042 376.467 415.292 375.6H417.742C417.375 377 416.642 378.125 415.542 378.975C414.442 379.808 413.067 380.225 411.417 380.225C410.117 380.225 408.959 379.933 407.942 379.35C406.942 378.767 406.159 377.942 405.592 376.875C405.025 375.808 404.742 374.558 404.742 373.125ZM432.928 366.3V380H430.653V377.975C430.219 378.675 429.611 379.225 428.828 379.625C428.061 380.008 427.211 380.2 426.278 380.2C425.211 380.2 424.253 379.983 423.403 379.55C422.553 379.1 421.878 378.433 421.378 377.55C420.894 376.667 420.653 375.592 420.653 374.325V366.3H422.903V374.025C422.903 375.375 423.244 376.417 423.928 377.15C424.611 377.867 425.544 378.225 426.728 378.225C427.944 378.225 428.903 377.85 429.603 377.1C430.303 376.35 430.653 375.258 430.653 373.825V366.3H432.928ZM453.244 366.05C454.31 366.05 455.26 366.275 456.094 366.725C456.927 367.158 457.585 367.817 458.069 368.7C458.552 369.583 458.794 370.658 458.794 371.925V380H456.544V372.25C456.544 370.883 456.202 369.842 455.519 369.125C454.852 368.392 453.944 368.025 452.794 368.025C451.61 368.025 450.669 368.408 449.969 369.175C449.269 369.925 448.919 371.017 448.919 372.45V380H446.669V372.25C446.669 370.883 446.327 369.842 445.644 369.125C444.977 368.392 444.069 368.025 442.919 368.025C441.735 368.025 440.794 368.408 440.094 369.175C439.394 369.925 439.044 371.017 439.044 372.45V380H436.769V366.3H439.044V368.275C439.494 367.558 440.094 367.008 440.844 366.625C441.61 366.242 442.452 366.05 443.369 366.05C444.519 366.05 445.535 366.308 446.419 366.825C447.302 367.342 447.96 368.1 448.394 369.1C448.777 368.133 449.41 367.383 450.294 366.85C451.177 366.317 452.16 366.05 453.244 366.05ZM475.026 372.625C475.026 373.058 475.001 373.517 474.951 374H464.001C464.084 375.35 464.542 376.408 465.376 377.175C466.226 377.925 467.251 378.3 468.451 378.3C469.434 378.3 470.251 378.075 470.901 377.625C471.567 377.158 472.034 376.542 472.301 375.775H474.751C474.384 377.092 473.651 378.167 472.551 379C471.451 379.817 470.084 380.225 468.451 380.225C467.151 380.225 465.984 379.933 464.951 379.35C463.934 378.767 463.134 377.942 462.551 376.875C461.967 375.792 461.676 374.542 461.676 373.125C461.676 371.708 461.959 370.467 462.526 369.4C463.092 368.333 463.884 367.517 464.901 366.95C465.934 366.367 467.117 366.075 468.451 366.075C469.751 366.075 470.901 366.358 471.901 366.925C472.901 367.492 473.667 368.275 474.201 369.275C474.751 370.258 475.026 371.375 475.026 372.625ZM472.676 372.15C472.676 371.283 472.484 370.542 472.101 369.925C471.717 369.292 471.192 368.817 470.526 368.5C469.876 368.167 469.151 368 468.351 368C467.201 368 466.217 368.367 465.401 369.1C464.601 369.833 464.142 370.85 464.026 372.15H472.676ZM484.704 366.05C486.37 366.05 487.72 366.558 488.754 367.575C489.787 368.575 490.304 370.025 490.304 371.925V380H488.054V372.25C488.054 370.883 487.712 369.842 487.029 369.125C486.345 368.392 485.412 368.025 484.229 368.025C483.029 368.025 482.07 368.4 481.354 369.15C480.654 369.9 480.304 370.992 480.304 372.425V380H478.029V366.3H480.304V368.25C480.754 367.55 481.362 367.008 482.129 366.625C482.912 366.242 483.77 366.05 484.704 366.05ZM496.795 368.175V376.25C496.795 376.917 496.936 377.392 497.22 377.675C497.503 377.942 497.995 378.075 498.695 378.075H500.37V380H498.32C497.053 380 496.103 379.708 495.47 379.125C494.836 378.542 494.52 377.583 494.52 376.25V368.175H492.745V366.3H494.52V362.85H496.795V366.3H500.37V368.175H496.795ZM502.276 373.1C502.276 371.7 502.56 370.475 503.126 369.425C503.693 368.358 504.468 367.533 505.451 366.95C506.451 366.367 507.56 366.075 508.776 366.075C509.976 366.075 511.018 366.333 511.901 366.85C512.785 367.367 513.443 368.017 513.876 368.8V366.3H516.176V380H513.876V377.45C513.426 378.25 512.751 378.917 511.851 379.45C510.968 379.967 509.935 380.225 508.751 380.225C507.535 380.225 506.435 379.925 505.451 379.325C504.468 378.725 503.693 377.883 503.126 376.8C502.56 375.717 502.276 374.483 502.276 373.1ZM513.876 373.125C513.876 372.092 513.668 371.192 513.251 370.425C512.835 369.658 512.268 369.075 511.551 368.675C510.851 368.258 510.076 368.05 509.226 368.05C508.376 368.05 507.601 368.25 506.901 368.65C506.201 369.05 505.643 369.633 505.226 370.4C504.81 371.167 504.601 372.067 504.601 373.1C504.601 374.15 504.81 375.067 505.226 375.85C505.643 376.617 506.201 377.208 506.901 377.625C507.601 378.025 508.376 378.225 509.226 378.225C510.076 378.225 510.851 378.025 511.551 377.625C512.268 377.208 512.835 376.617 513.251 375.85C513.668 375.067 513.876 374.158 513.876 373.125ZM522.796 368.175V376.25C522.796 376.917 522.937 377.392 523.221 377.675C523.504 377.942 523.996 378.075 524.696 378.075H526.371V380H524.321C523.054 380 522.104 379.708 521.471 379.125C520.837 378.542 520.521 377.583 520.521 376.25V368.175H518.746V366.3H520.521V362.85H522.796V366.3H526.371V368.175H522.796ZM530.302 364.075C529.869 364.075 529.502 363.925 529.202 363.625C528.902 363.325 528.752 362.958 528.752 362.525C528.752 362.092 528.902 361.725 529.202 361.425C529.502 361.125 529.869 360.975 530.302 360.975C530.719 360.975 531.069 361.125 531.352 361.425C531.652 361.725 531.802 362.092 531.802 362.525C531.802 362.958 531.652 363.325 531.352 363.625C531.069 363.925 530.719 364.075 530.302 364.075ZM531.402 366.3V380H529.127V366.3H531.402ZM541.254 380.225C539.971 380.225 538.804 379.933 537.754 379.35C536.721 378.767 535.904 377.942 535.304 376.875C534.721 375.792 534.429 374.542 534.429 373.125C534.429 371.725 534.729 370.492 535.329 369.425C535.946 368.342 536.779 367.517 537.829 366.95C538.879 366.367 540.054 366.075 541.354 366.075C542.654 366.075 543.829 366.367 544.879 366.95C545.929 367.517 546.754 368.333 547.354 369.4C547.971 370.467 548.279 371.708 548.279 373.125C548.279 374.542 547.963 375.792 547.329 376.875C546.713 377.942 545.871 378.767 544.804 379.35C543.738 379.933 542.554 380.225 541.254 380.225ZM541.254 378.225C542.071 378.225 542.838 378.033 543.554 377.65C544.271 377.267 544.846 376.692 545.279 375.925C545.729 375.158 545.954 374.225 545.954 373.125C545.954 372.025 545.738 371.092 545.304 370.325C544.871 369.558 544.304 368.992 543.604 368.625C542.904 368.242 542.146 368.05 541.329 368.05C540.496 368.05 539.729 368.242 539.029 368.625C538.346 368.992 537.796 369.558 537.379 370.325C536.963 371.092 536.754 372.025 536.754 373.125C536.754 374.242 536.954 375.183 537.354 375.95C537.771 376.717 538.321 377.292 539.004 377.675C539.688 378.042 540.438 378.225 541.254 378.225ZM557.946 366.05C559.612 366.05 560.962 366.558 561.996 367.575C563.029 368.575 563.546 370.025 563.546 371.925V380H561.296V372.25C561.296 370.883 560.954 369.842 560.271 369.125C559.587 368.392 558.654 368.025 557.471 368.025C556.271 368.025 555.312 368.4 554.596 369.15C553.896 369.9 553.546 370.992 553.546 372.425V380H551.271V366.3H553.546V368.25C553.996 367.55 554.604 367.008 555.371 366.625C556.154 366.242 557.012 366.05 557.946 366.05Z" fill="white"/>
<path d="M339.2 498.425V504.25H345.55V506.125H339.2V512.125H346.3V514H336.925V496.55H346.3V498.425H339.2ZM356.892 514L353.642 508.9L350.517 514H348.142L352.567 507.2L348.142 500.3H350.717L353.967 505.375L357.067 500.3H359.442L355.042 507.075L359.467 514H356.892ZM363.98 502.825C364.43 502.042 365.097 501.392 365.98 500.875C366.88 500.342 367.922 500.075 369.105 500.075C370.322 500.075 371.422 500.367 372.405 500.95C373.405 501.533 374.189 502.358 374.755 503.425C375.322 504.475 375.605 505.7 375.605 507.1C375.605 508.483 375.322 509.717 374.755 510.8C374.189 511.883 373.405 512.725 372.405 513.325C371.422 513.925 370.322 514.225 369.105 514.225C367.939 514.225 366.905 513.967 366.005 513.45C365.122 512.917 364.447 512.258 363.98 511.475V520.5H361.705V500.3H363.98V502.825ZM373.28 507.1C373.28 506.067 373.072 505.167 372.655 504.4C372.239 503.633 371.672 503.05 370.955 502.65C370.255 502.25 369.48 502.05 368.63 502.05C367.797 502.05 367.022 502.258 366.305 502.675C365.605 503.075 365.039 503.667 364.605 504.45C364.189 505.217 363.98 506.108 363.98 507.125C363.98 508.158 364.189 509.067 364.605 509.85C365.039 510.617 365.605 511.208 366.305 511.625C367.022 512.025 367.797 512.225 368.63 512.225C369.48 512.225 370.255 512.025 370.955 511.625C371.672 511.208 372.239 510.617 372.655 509.85C373.072 509.067 373.28 508.15 373.28 507.1ZM391.1 506.625C391.1 507.058 391.075 507.517 391.025 508H380.075C380.158 509.35 380.616 510.408 381.45 511.175C382.3 511.925 383.325 512.3 384.525 512.3C385.508 512.3 386.325 512.075 386.975 511.625C387.641 511.158 388.108 510.542 388.375 509.775H390.825C390.458 511.092 389.725 512.167 388.625 513C387.525 513.817 386.158 514.225 384.525 514.225C383.225 514.225 382.058 513.933 381.025 513.35C380.008 512.767 379.208 511.942 378.625 510.875C378.041 509.792 377.75 508.542 377.75 507.125C377.75 505.708 378.033 504.467 378.6 503.4C379.166 502.333 379.958 501.517 380.975 500.95C382.008 500.367 383.191 500.075 384.525 500.075C385.825 500.075 386.975 500.358 387.975 500.925C388.975 501.492 389.741 502.275 390.275 503.275C390.825 504.258 391.1 505.375 391.1 506.625ZM388.75 506.15C388.75 505.283 388.558 504.542 388.175 503.925C387.791 503.292 387.266 502.817 386.6 502.5C385.95 502.167 385.225 502 384.425 502C383.275 502 382.291 502.367 381.475 503.1C380.675 503.833 380.216 504.85 380.1 506.15H388.75ZM396.378 502.525C396.778 501.742 397.344 501.133 398.078 500.7C398.828 500.267 399.736 500.05 400.803 500.05V502.4H400.203C397.653 502.4 396.378 503.783 396.378 506.55V514H394.103V500.3H396.378V502.525ZM406.204 502.175V510.25C406.204 510.917 406.346 511.392 406.629 511.675C406.912 511.942 407.404 512.075 408.104 512.075H409.779V514H407.729C406.462 514 405.512 513.708 404.879 513.125C404.246 512.542 403.929 511.583 403.929 510.25V502.175H402.154V500.3H403.929V496.85H406.204V500.3H409.779V502.175H406.204ZM413.71 498.075C413.277 498.075 412.91 497.925 412.61 497.625C412.31 497.325 412.16 496.958 412.16 496.525C412.16 496.092 412.31 495.725 412.61 495.425C412.91 495.125 413.277 494.975 413.71 494.975C414.127 494.975 414.477 495.125 414.76 495.425C415.06 495.725 415.21 496.092 415.21 496.525C415.21 496.958 415.06 497.325 414.76 497.625C414.477 497.925 414.127 498.075 413.71 498.075ZM414.81 500.3V514H412.535V500.3H414.81ZM423.538 514.225C422.488 514.225 421.546 514.05 420.713 513.7C419.879 513.333 419.221 512.833 418.738 512.2C418.254 511.55 417.988 510.808 417.938 509.975H420.288C420.354 510.658 420.671 511.217 421.238 511.65C421.821 512.083 422.579 512.3 423.513 512.3C424.379 512.3 425.063 512.108 425.563 511.725C426.063 511.342 426.313 510.858 426.313 510.275C426.313 509.675 426.046 509.233 425.513 508.95C424.979 508.65 424.154 508.358 423.038 508.075C422.021 507.808 421.188 507.542 420.538 507.275C419.904 506.992 419.354 506.583 418.888 506.05C418.438 505.5 418.213 504.783 418.213 503.9C418.213 503.2 418.421 502.558 418.838 501.975C419.254 501.392 419.846 500.933 420.613 500.6C421.379 500.25 422.254 500.075 423.238 500.075C424.754 500.075 425.979 500.458 426.913 501.225C427.846 501.992 428.346 503.042 428.413 504.375H426.138C426.088 503.658 425.796 503.083 425.263 502.65C424.746 502.217 424.046 502 423.163 502C422.346 502 421.696 502.175 421.213 502.525C420.729 502.875 420.488 503.333 420.488 503.9C420.488 504.35 420.629 504.725 420.913 505.025C421.213 505.308 421.579 505.542 422.013 505.725C422.463 505.892 423.079 506.083 423.863 506.3C424.846 506.567 425.646 506.833 426.263 507.1C426.879 507.35 427.404 507.733 427.838 508.25C428.288 508.767 428.521 509.442 428.538 510.275C428.538 511.025 428.329 511.7 427.913 512.3C427.496 512.9 426.904 513.375 426.138 513.725C425.388 514.058 424.521 514.225 423.538 514.225ZM444.249 506.625C444.249 507.058 444.224 507.517 444.174 508H433.224C433.308 509.35 433.766 510.408 434.599 511.175C435.449 511.925 436.474 512.3 437.674 512.3C438.658 512.3 439.474 512.075 440.124 511.625C440.791 511.158 441.258 510.542 441.524 509.775H443.974C443.608 511.092 442.874 512.167 441.774 513C440.674 513.817 439.308 514.225 437.674 514.225C436.374 514.225 435.208 513.933 434.174 513.35C433.158 512.767 432.358 511.942 431.774 510.875C431.191 509.792 430.899 508.542 430.899 507.125C430.899 505.708 431.183 504.467 431.749 503.4C432.316 502.333 433.108 501.517 434.124 500.95C435.158 500.367 436.341 500.075 437.674 500.075C438.974 500.075 440.124 500.358 441.124 500.925C442.124 501.492 442.891 502.275 443.424 503.275C443.974 504.258 444.249 505.375 444.249 506.625ZM441.899 506.15C441.899 505.283 441.708 504.542 441.324 503.925C440.941 503.292 440.416 502.817 439.749 502.5C439.099 502.167 438.374 502 437.574 502C436.424 502 435.441 502.367 434.624 503.1C433.824 503.833 433.366 504.85 433.249 506.15H441.899ZM455.092 498.075C454.659 498.075 454.292 497.925 453.992 497.625C453.692 497.325 453.542 496.958 453.542 496.525C453.542 496.092 453.692 495.725 453.992 495.425C454.292 495.125 454.659 494.975 455.092 494.975C455.509 494.975 455.859 495.125 456.142 495.425C456.442 495.725 456.592 496.092 456.592 496.525C456.592 496.958 456.442 497.325 456.142 497.625C455.859 497.925 455.509 498.075 455.092 498.075ZM456.192 500.3V514H453.917V500.3H456.192ZM466.745 500.05C468.411 500.05 469.761 500.558 470.795 501.575C471.828 502.575 472.345 504.025 472.345 505.925V514H470.095V506.25C470.095 504.883 469.753 503.842 469.07 503.125C468.386 502.392 467.453 502.025 466.27 502.025C465.07 502.025 464.111 502.4 463.395 503.15C462.695 503.9 462.345 504.992 462.345 506.425V514H460.07V500.3H462.345V502.25C462.795 501.55 463.403 501.008 464.17 500.625C464.953 500.242 465.811 500.05 466.745 500.05ZM339.15 524.575V535.6C339.15 537.15 339.525 538.3 340.275 539.05C341.042 539.8 342.1 540.175 343.45 540.175C344.783 540.175 345.825 539.8 346.575 539.05C347.342 538.3 347.725 537.15 347.725 535.6V524.575H350V535.575C350 537.025 349.708 538.25 349.125 539.25C348.542 540.233 347.75 540.967 346.75 541.45C345.767 541.933 344.658 542.175 343.425 542.175C342.192 542.175 341.075 541.933 340.075 541.45C339.092 540.967 338.308 540.233 337.725 539.25C337.158 538.25 336.875 537.025 336.875 535.575V524.575H339.15ZM358.645 542.225C357.595 542.225 356.653 542.05 355.82 541.7C354.987 541.333 354.328 540.833 353.845 540.2C353.362 539.55 353.095 538.808 353.045 537.975H355.395C355.462 538.658 355.778 539.217 356.345 539.65C356.928 540.083 357.687 540.3 358.62 540.3C359.487 540.3 360.17 540.108 360.67 539.725C361.17 539.342 361.42 538.858 361.42 538.275C361.42 537.675 361.153 537.233 360.62 536.95C360.087 536.65 359.262 536.358 358.145 536.075C357.128 535.808 356.295 535.542 355.645 535.275C355.012 534.992 354.462 534.583 353.995 534.05C353.545 533.5 353.32 532.783 353.32 531.9C353.32 531.2 353.528 530.558 353.945 529.975C354.362 529.392 354.953 528.933 355.72 528.6C356.487 528.25 357.362 528.075 358.345 528.075C359.862 528.075 361.087 528.458 362.02 529.225C362.953 529.992 363.453 531.042 363.52 532.375H361.245C361.195 531.658 360.903 531.083 360.37 530.65C359.853 530.217 359.153 530 358.27 530C357.453 530 356.803 530.175 356.32 530.525C355.837 530.875 355.595 531.333 355.595 531.9C355.595 532.35 355.737 532.725 356.02 533.025C356.32 533.308 356.687 533.542 357.12 533.725C357.57 533.892 358.187 534.083 358.97 534.3C359.953 534.567 360.753 534.833 361.37 535.1C361.987 535.35 362.512 535.733 362.945 536.25C363.395 536.767 363.628 537.442 363.645 538.275C363.645 539.025 363.437 539.7 363.02 540.3C362.603 540.9 362.012 541.375 361.245 541.725C360.495 542.058 359.628 542.225 358.645 542.225ZM379.357 534.625C379.357 535.058 379.332 535.517 379.282 536H368.332C368.415 537.35 368.873 538.408 369.707 539.175C370.557 539.925 371.582 540.3 372.782 540.3C373.765 540.3 374.582 540.075 375.232 539.625C375.898 539.158 376.365 538.542 376.632 537.775H379.082C378.715 539.092 377.982 540.167 376.882 541C375.782 541.817 374.415 542.225 372.782 542.225C371.482 542.225 370.315 541.933 369.282 541.35C368.265 540.767 367.465 539.942 366.882 538.875C366.298 537.792 366.007 536.542 366.007 535.125C366.007 533.708 366.29 532.467 366.857 531.4C367.423 530.333 368.215 529.517 369.232 528.95C370.265 528.367 371.448 528.075 372.782 528.075C374.082 528.075 375.232 528.358 376.232 528.925C377.232 529.492 377.998 530.275 378.532 531.275C379.082 532.258 379.357 533.375 379.357 534.625ZM377.007 534.15C377.007 533.283 376.815 532.542 376.432 531.925C376.048 531.292 375.523 530.817 374.857 530.5C374.207 530.167 373.482 530 372.682 530C371.532 530 370.548 530.367 369.732 531.1C368.932 531.833 368.473 532.85 368.357 534.15H377.007ZM384.635 530.525C385.035 529.742 385.601 529.133 386.335 528.7C387.085 528.267 387.993 528.05 389.06 528.05V530.4H388.46C385.91 530.4 384.635 531.783 384.635 534.55V542H382.36V528.3H384.635V530.525ZM410.851 534.625C410.851 535.058 410.826 535.517 410.776 536H399.826C399.909 537.35 400.367 538.408 401.201 539.175C402.051 539.925 403.076 540.3 404.276 540.3C405.259 540.3 406.076 540.075 406.726 539.625C407.392 539.158 407.859 538.542 408.126 537.775H410.576C410.209 539.092 409.476 540.167 408.376 541C407.276 541.817 405.909 542.225 404.276 542.225C402.976 542.225 401.809 541.933 400.776 541.35C399.759 540.767 398.959 539.942 398.376 538.875C397.792 537.792 397.501 536.542 397.501 535.125C397.501 533.708 397.784 532.467 398.351 531.4C398.917 530.333 399.709 529.517 400.726 528.95C401.759 528.367 402.942 528.075 404.276 528.075C405.576 528.075 406.726 528.358 407.726 528.925C408.726 529.492 409.492 530.275 410.026 531.275C410.576 532.258 410.851 533.375 410.851 534.625ZM408.501 534.15C408.501 533.283 408.309 532.542 407.926 531.925C407.542 531.292 407.017 530.817 406.351 530.5C405.701 530.167 404.976 530 404.176 530C403.026 530 402.042 530.367 401.226 531.1C400.426 531.833 399.967 532.85 399.851 534.15H408.501ZM421.004 542L417.754 536.9L414.629 542H412.254L416.679 535.2L412.254 528.3H414.829L418.079 533.375L421.179 528.3H423.554L419.154 535.075L423.579 542H421.004ZM428.092 530.825C428.542 530.042 429.208 529.392 430.092 528.875C430.992 528.342 432.033 528.075 433.217 528.075C434.433 528.075 435.533 528.367 436.517 528.95C437.517 529.533 438.3 530.358 438.867 531.425C439.433 532.475 439.717 533.7 439.717 535.1C439.717 536.483 439.433 537.717 438.867 538.8C438.3 539.883 437.517 540.725 436.517 541.325C435.533 541.925 434.433 542.225 433.217 542.225C432.05 542.225 431.017 541.967 430.117 541.45C429.233 540.917 428.558 540.258 428.092 539.475V548.5H425.817V528.3H428.092V530.825ZM437.392 535.1C437.392 534.067 437.183 533.167 436.767 532.4C436.35 531.633 435.783 531.05 435.067 530.65C434.367 530.25 433.592 530.05 432.742 530.05C431.908 530.05 431.133 530.258 430.417 530.675C429.717 531.075 429.15 531.667 428.717 532.45C428.3 533.217 428.092 534.108 428.092 535.125C428.092 536.158 428.3 537.067 428.717 537.85C429.15 538.617 429.717 539.208 430.417 539.625C431.133 540.025 431.908 540.225 432.742 540.225C433.592 540.225 434.367 540.025 435.067 539.625C435.783 539.208 436.35 538.617 436.767 537.85C437.183 537.067 437.392 536.15 437.392 535.1ZM455.211 534.625C455.211 535.058 455.186 535.517 455.136 536H444.186C444.269 537.35 444.728 538.408 445.561 539.175C446.411 539.925 447.436 540.3 448.636 540.3C449.619 540.3 450.436 540.075 451.086 539.625C451.753 539.158 452.219 538.542 452.486 537.775H454.936C454.569 539.092 453.836 540.167 452.736 541C451.636 541.817 450.269 542.225 448.636 542.225C447.336 542.225 446.169 541.933 445.136 541.35C444.119 540.767 443.319 539.942 442.736 538.875C442.153 537.792 441.861 536.542 441.861 535.125C441.861 533.708 442.144 532.467 442.711 531.4C443.278 530.333 444.069 529.517 445.086 528.95C446.119 528.367 447.303 528.075 448.636 528.075C449.936 528.075 451.086 528.358 452.086 528.925C453.086 529.492 453.853 530.275 454.386 531.275C454.936 532.258 455.211 533.375 455.211 534.625ZM452.861 534.15C452.861 533.283 452.669 532.542 452.286 531.925C451.903 531.292 451.378 530.817 450.711 530.5C450.061 530.167 449.336 530 448.536 530C447.386 530 446.403 530.367 445.586 531.1C444.786 531.833 444.328 532.85 444.211 534.15H452.861ZM460.489 530.525C460.889 529.742 461.456 529.133 462.189 528.7C462.939 528.267 463.847 528.05 464.914 528.05V530.4H464.314C461.764 530.4 460.489 531.783 460.489 534.55V542H458.214V528.3H460.489V530.525ZM468.715 526.075C468.282 526.075 467.915 525.925 467.615 525.625C467.315 525.325 467.165 524.958 467.165 524.525C467.165 524.092 467.315 523.725 467.615 523.425C467.915 523.125 468.282 522.975 468.715 522.975C469.132 522.975 469.482 523.125 469.765 523.425C470.065 523.725 470.215 524.092 470.215 524.525C470.215 524.958 470.065 525.325 469.765 525.625C469.482 525.925 469.132 526.075 468.715 526.075ZM469.815 528.3V542H467.54V528.3H469.815ZM486.193 534.625C486.193 535.058 486.168 535.517 486.118 536H475.168C475.251 537.35 475.709 538.408 476.543 539.175C477.393 539.925 478.418 540.3 479.618 540.3C480.601 540.3 481.418 540.075 482.068 539.625C482.734 539.158 483.201 538.542 483.468 537.775H485.918C485.551 539.092 484.818 540.167 483.718 541C482.618 541.817 481.251 542.225 479.618 542.225C478.318 542.225 477.151 541.933 476.118 541.35C475.101 540.767 474.301 539.942 473.718 538.875C473.134 537.792 472.843 536.542 472.843 535.125C472.843 533.708 473.126 532.467 473.693 531.4C474.259 530.333 475.051 529.517 476.068 528.95C477.101 528.367 478.284 528.075 479.618 528.075C480.918 528.075 482.068 528.358 483.068 528.925C484.068 529.492 484.834 530.275 485.368 531.275C485.918 532.258 486.193 533.375 486.193 534.625ZM483.843 534.15C483.843 533.283 483.651 532.542 483.268 531.925C482.884 531.292 482.359 530.817 481.693 530.5C481.043 530.167 480.318 530 479.518 530C478.368 530 477.384 530.367 476.568 531.1C475.768 531.833 475.309 532.85 475.193 534.15H483.843ZM495.871 528.05C497.537 528.05 498.887 528.558 499.921 529.575C500.954 530.575 501.471 532.025 501.471 533.925V542H499.221V534.25C499.221 532.883 498.879 531.842 498.196 531.125C497.512 530.392 496.579 530.025 495.396 530.025C494.196 530.025 493.237 530.4 492.521 531.15C491.821 531.9 491.471 532.992 491.471 534.425V542H489.196V528.3H491.471V530.25C491.921 529.55 492.529 529.008 493.296 528.625C494.079 528.242 494.937 528.05 495.871 528.05ZM504.337 535.125C504.337 533.708 504.62 532.475 505.187 531.425C505.753 530.358 506.537 529.533 507.537 528.95C508.553 528.367 509.712 528.075 511.012 528.075C512.695 528.075 514.078 528.483 515.162 529.3C516.262 530.117 516.987 531.25 517.337 532.7H514.887C514.653 531.867 514.195 531.208 513.512 530.725C512.845 530.242 512.012 530 511.012 530C509.712 530 508.662 530.45 507.862 531.35C507.062 532.233 506.662 533.492 506.662 535.125C506.662 536.775 507.062 538.05 507.862 538.95C508.662 539.85 509.712 540.3 511.012 540.3C512.012 540.3 512.845 540.067 513.512 539.6C514.178 539.133 514.637 538.467 514.887 537.6H517.337C516.97 539 516.237 540.125 515.137 540.975C514.037 541.808 512.662 542.225 511.012 542.225C509.712 542.225 508.553 541.933 507.537 541.35C506.537 540.767 505.753 539.942 505.187 538.875C504.62 537.808 504.337 536.558 504.337 535.125ZM532.872 534.625C532.872 535.058 532.847 535.517 532.797 536H521.847C521.931 537.35 522.389 538.408 523.222 539.175C524.072 539.925 525.097 540.3 526.297 540.3C527.281 540.3 528.097 540.075 528.747 539.625C529.414 539.158 529.881 538.542 530.147 537.775H532.597C532.231 539.092 531.497 540.167 530.397 541C529.297 541.817 527.931 542.225 526.297 542.225C524.997 542.225 523.831 541.933 522.797 541.35C521.781 540.767 520.981 539.942 520.397 538.875C519.814 537.792 519.522 536.542 519.522 535.125C519.522 533.708 519.806 532.467 520.372 531.4C520.939 530.333 521.731 529.517 522.747 528.95C523.781 528.367 524.964 528.075 526.297 528.075C527.597 528.075 528.747 528.358 529.747 528.925C530.747 529.492 531.514 530.275 532.047 531.275C532.597 532.258 532.872 533.375 532.872 534.625ZM530.522 534.15C530.522 533.283 530.331 532.542 529.947 531.925C529.564 531.292 529.039 530.817 528.372 530.5C527.722 530.167 526.997 530 526.197 530C525.047 530 524.064 530.367 523.247 531.1C522.447 531.833 521.989 532.85 521.872 534.15H530.522Z" fill="white"/>
</svg>
