<svg width="74" height="74" viewBox="0 0 74 74" fill="none" xmlns="http://www.w3.org/2000/svg">
<path d="M37 73C56.8823 73 73 56.8823 73 37C73 17.1177 56.8823 1 37 1C17.1177 1 1 17.1177 1 37C1 56.8823 17.1177 73 37 73Z" fill="#192538" stroke="#3D3B32" stroke-width="2" stroke-miterlimit="10"/>
<path d="M51.16 23.0391H54.2C54.656 23.0391 54.96 23.3431 54.96 23.7991V48.1191C54.96 48.5751 54.656 48.8791 54.2 48.8791H20.76C20.304 48.8791 20 48.5751 20 48.1191V23.7991C20 23.3431 20.304 23.0391 20.76 23.0391H23.8" stroke="#F7B500" stroke-width="2" stroke-miterlimit="10"/>
<path d="M41.2812 50.3984V53.4384" stroke="#F7B500" stroke-width="2" stroke-miterlimit="10"/>
<path d="M34.4414 53.4384V50.3984" stroke="#F7B500" stroke-width="2" stroke-miterlimit="10"/>
<path d="M44.3184 53.4414H31.3984" stroke="#F7B500" stroke-width="2" stroke-miterlimit="10"/>
<path d="M20 44.3203H54.96" stroke="#F7B500" stroke-width="2" stroke-miterlimit="10"/>
<path d="M36.7188 46.6016H38.9987" stroke="#F7B500" stroke-width="2" stroke-miterlimit="10"/>
<path d="M26.0781 42.04V20H48.8781V42.04" stroke="#F7B500" stroke-width="2" stroke-miterlimit="10"/>
<path d="M26.0781 24.5586H48.8781" stroke="#F7B500" stroke-width="2" stroke-miterlimit="10"/>
<path d="M28.3594 22.2812H29.8794" stroke="#F7B500" stroke-width="2" stroke-miterlimit="10"/>
<path d="M31.3984 22.2812H32.9184" stroke="#F7B500" stroke-width="2" stroke-miterlimit="10"/>
<path d="M34.4414 22.2812H35.9614" stroke="#F7B500" stroke-width="2" stroke-miterlimit="10"/>
</svg>
