<svg width="74" height="74" viewBox="0 0 74 74" fill="none" xmlns="http://www.w3.org/2000/svg">
<path d="M37 73C56.8823 73 73 56.8823 73 37C73 17.1177 56.8823 1 37 1C17.1177 1 1 17.1177 1 37C1 56.8823 17.1177 73 37 73Z" fill="#192538" stroke="#3D3B32" stroke-width="2" stroke-miterlimit="10"/>
<path d="M32.6406 55.4784V53.9584C32.6406 53.9584 34.9206 52.2864 34.9206 50.1584V49.3984" stroke="#F7B500" stroke-width="2" stroke-miterlimit="10"/>
<path d="M26.56 39.5195L23.52 41.9515C22.456 42.9395 22 43.4715 22 44.9915V50.7675V55.4795" stroke="#F7B500" stroke-width="2" stroke-miterlimit="10"/>
<path d="M41.7605 19V20.52C41.7605 20.52 39.4805 22.192 39.4805 24.32V25.08" stroke="#F7B500" stroke-width="2" stroke-miterlimit="10"/>
<path d="M47.8398 34.96L50.8798 32.528C51.9438 31.54 52.3998 31.008 52.3998 29.488V23.712V19" stroke="#F7B500" stroke-width="2" stroke-miterlimit="10"/>
<path d="M26.5586 46.3581V28.1181L29.5986 25.0781H43.2786" stroke="#F7B500" stroke-width="2" stroke-miterlimit="10"/>
<path d="M47.8411 28.1211V49.4011H31.1211" stroke="#F7B500" stroke-width="2" stroke-miterlimit="10"/>
<path d="M31.1211 33.4414H38.7211" stroke="#F7B500" stroke-width="2" stroke-miterlimit="10"/>
<path d="M31.1211 36.4805H43.2811" stroke="#F7B500" stroke-width="2" stroke-miterlimit="10"/>
<path d="M35.6797 39.5195H43.2797" stroke="#F7B500" stroke-width="2" stroke-miterlimit="10"/>
<path d="M35.6797 42.5586H43.2797" stroke="#F7B500" stroke-width="2" stroke-miterlimit="10"/>
<path d="M31.1181 26.6016V29.6416H28.0781" stroke="#F7B500" stroke-width="2" stroke-miterlimit="10"/>
<path d="M24.8125 47.881C24.8125 47.881 29.7525 43.169 31.1205 41.801C32.4885 40.433 34.3885 43.549 32.7925 45.601C31.9565 46.437 31.1205 47.121 31.1205 47.121C31.1205 47.425 31.1205 48.337 31.1205 48.641C31.1205 51.605 28.3845 52.441 27.9285 52.441" stroke="#F7B500" stroke-width="2" stroke-miterlimit="10"/>
<path d="M49.5875 26.5991C49.5875 26.5991 44.6475 31.3111 43.2795 32.6791C41.9115 34.0471 40.0115 30.9311 41.6075 28.8791C42.4435 28.0431 43.2795 27.3591 43.2795 27.3591C43.2795 27.0551 43.2795 26.1431 43.2795 25.8391C43.2795 22.8751 46.0155 22.0391 46.4715 22.0391" stroke="#F7B500" stroke-width="2" stroke-miterlimit="10"/>
</svg>
