<svg width="74" height="74" viewBox="0 0 74 74" fill="none" xmlns="http://www.w3.org/2000/svg">
<path d="M37 73C56.8823 73 73 56.8823 73 37C73 17.1177 56.8823 1 37 1C17.1177 1 1 17.1177 1 37C1 56.8823 17.1177 73 37 73Z" fill="#192538" stroke="#3D3B32" stroke-width="2" stroke-miterlimit="10"/>
<path d="M34.4401 44.7761C31.6281 44.0161 29.4241 41.8121 28.6641 39.0001M44.7761 39.0001C44.0161 41.8121 41.8121 43.9401 39.0001 44.7761L44.7761 39.0001ZM39.0001 28.6641C41.8121 29.4241 44.0161 31.6281 44.7761 34.4401L39.0001 28.6641ZM28.6641 34.4401C29.4241 31.6281 31.6281 29.5001 34.4401 28.6641L28.6641 34.4401Z" stroke="#F7B500" stroke-width="2" stroke-miterlimit="10"/>
<path d="M34.5904 51.5384C28.0544 50.6264 22.8104 45.3824 21.8984 38.8464M51.5384 38.8464C50.6264 45.3824 45.3824 50.6264 38.8464 51.5384L51.5384 38.8464ZM38.8464 21.8984C45.3824 22.8104 50.6264 28.0544 51.5384 34.5904L38.8464 21.8984ZM21.8984 34.5904C22.8104 28.0544 28.0544 22.8104 34.5904 21.8984L21.8984 34.5904Z" stroke="#F7B500" stroke-width="2" stroke-miterlimit="10"/>
<path d="M39.0014 45.0786C39.0014 44.2426 38.3174 43.5586 37.4814 43.5586H35.9614C35.1254 43.5586 34.4414 44.2426 34.4414 45.0786V51.9186C34.4414 52.7546 35.1254 53.4386 35.9614 53.4386H37.4814C38.3174 53.4386 39.0014 52.7546 39.0014 51.9186V45.0786Z" stroke="#F7B500" stroke-width="2" stroke-miterlimit="10"/>
<path d="M53.4386 35.9614C53.4386 35.1254 52.7546 34.4414 51.9186 34.4414H45.0786C44.2426 34.4414 43.5586 35.1254 43.5586 35.9614V37.4814C43.5586 38.3174 44.2426 39.0014 45.0786 39.0014H51.9186C52.7546 39.0014 53.4386 38.3174 53.4386 37.4814V35.9614Z" stroke="#F7B500" stroke-width="2" stroke-miterlimit="10"/>
<path d="M29.88 35.9614C29.88 35.1254 29.196 34.4414 28.36 34.4414H21.52C20.684 34.4414 20 35.1254 20 35.9614V37.4814C20 38.3174 20.684 39.0014 21.52 39.0014H28.36C29.196 39.0014 29.88 38.3174 29.88 37.4814V35.9614Z" stroke="#F7B500" stroke-width="2" stroke-miterlimit="10"/>
<path d="M39.0014 21.52C39.0014 20.684 38.3174 20 37.4814 20H35.9614C35.1254 20 34.4414 20.684 34.4414 21.52V28.36C34.4414 29.196 35.1254 29.88 35.9614 29.88H37.4814C38.3174 29.88 39.0014 29.196 39.0014 28.36V21.52Z" stroke="#F7B500" stroke-width="2" stroke-miterlimit="10"/>
<path d="M20.7617 28.3617V26.0817C20.7617 23.1177 23.1177 20.7617 26.0817 20.7617H28.3617" stroke="#F7B500" stroke-width="2" stroke-miterlimit="10"/>
<path d="M52.6781 28.3617V26.0817C52.6781 23.1177 50.3221 20.7617 47.3581 20.7617H45.0781" stroke="#F7B500" stroke-width="2" stroke-miterlimit="10"/>
<path d="M20.7617 45.0781V47.3581C20.7617 50.3221 23.1177 52.6781 26.0817 52.6781H28.3617" stroke="#F7B500" stroke-width="2" stroke-miterlimit="10"/>
<path d="M52.6781 45.0781V47.3581C52.6781 50.3221 50.3221 52.6781 47.3581 52.6781H45.0781" stroke="#F7B500" stroke-width="2" stroke-miterlimit="10"/>
</svg>
